<?xml version="1.0" standalone="no"?>
<!DOCTYPE svg PUBLIC "-//W3C//DTD SVG 20010904//EN"
 "http://www.w3.org/TR/2001/REC-SVG-20010904/DTD/svg10.dtd">
<svg version="1.0" xmlns="http://www.w3.org/2000/svg"
 width="1076.000000pt" height="1570.000000pt" viewBox="0 0 1076.000000 1570.000000"
 preserveAspectRatio="xMidYMid meet">

<g transform="translate(0.000000,1570.000000) scale(0.100000,-0.100000)"
fill="#000000" stroke="none">
<path d="M5120 15465 c-105 -15 -234 -52 -188 -54 23 -1 26 -5 24 -28 -3 -27
-26 -42 -73 -45 -12 -1 -23 -6 -23 -10 0 -10 -2 -10 38 1 61 18 87 -15 35 -43
l-28 -14 28 -11 c24 -9 27 -16 27 -56 l0 -45 -37 -1 c-26 -1 -31 -3 -14 -6 24
-5 24 -5 17 -106 -15 -236 -14 -263 4 -102 10 94 19 176 19 183 1 10 5 10 20
0 13 -8 17 -16 11 -23 -8 -9 -2 -56 34 -297 1 -10 5 -21 9 -24 4 -4 7 -16 7
-26 0 -17 -7 -19 -66 -17 -57 2 -68 0 -87 -21 l-22 -24 22 18 c18 15 31 17 71
11 47 -6 50 -9 57 -41 4 -23 14 -38 28 -44 18 -7 14 -9 -23 -11 l-45 -2 35 -7
c19 -4 29 -8 23 -9 -8 0 -13 -15 -13 -36 0 -79 -47 -117 -167 -135 -96 -14
-93 -15 -94 28 -2 33 -2 34 -6 7 -3 -16 -8 -34 -13 -39 -12 -12 -378 -28 -451
-20 -56 6 -57 6 -79 55 -29 60 -35 59 -13 -3 l17 -46 -29 -34 c-23 -26 -57
-45 -137 -78 -59 -23 -105 -47 -102 -52 3 -5 11 -5 19 2 7 6 21 8 31 4 15 -5
16 -4 5 4 -22 16 125 57 155 43 16 -7 24 -7 27 2 2 7 23 22 46 34 44 24 97 26
466 25 83 -1 193 -1 246 -1 126 0 149 -6 150 -40 l0 -26 10 24 c9 22 11 22 32
8 21 -13 64 -24 167 -43 19 -3 206 -8 415 -9 209 -2 391 -6 405 -9 24 -6 40
-8 135 -21 21 -3 42 -9 45 -14 3 -4 13 -7 24 -5 10 1 35 -7 55 -20 20 -12 49
-27 64 -34 20 -8 27 -17 23 -28 -3 -8 -2 -12 4 -9 6 3 10 13 10 21 0 11 4 12
19 2 10 -6 17 -18 14 -26 -4 -9 0 -12 13 -10 10 2 19 -1 20 -7 2 -25 17 -42
32 -38 11 2 21 -4 27 -18 6 -13 25 -30 42 -38 18 -9 33 -22 33 -28 0 -7 4 -13
10 -13 5 0 12 -11 16 -25 3 -14 10 -22 15 -19 5 3 9 0 9 -5 0 -6 -6 -11 -12
-11 -7 0 -4 -6 7 -12 26 -15 34 -28 28 -46 -4 -10 -10 -6 -19 14 -12 24 -13
25 -8 4 6 -23 6 -23 -10 -7 -20 20 -52 22 -59 5 -4 -10 -6 -10 -6 0 -1 6 -7
12 -14 12 -8 0 -40 9 -73 19 -131 43 -501 46 -642 5 -122 -35 -174 -152 -114
-256 31 -53 69 -62 252 -60 91 1 190 -2 220 -7 l55 -9 -70 -1 c-240 -5 -402
-86 -480 -241 -47 -94 -58 -148 -58 -282 -1 -71 -2 -128 -3 -128 -1 0 -30 7
-64 16 -66 17 -132 13 -202 -12 -21 -7 -39 -10 -40 -6 0 4 -2 54 -3 112 -2
169 -37 276 -118 366 -46 51 -149 115 -183 113 -14 -1 -12 -3 6 -8 14 -4 24
-13 23 -19 -2 -7 4 -9 14 -5 11 4 14 3 9 -5 -4 -7 6 -20 28 -33 l35 -21 -22
-30 c-22 -29 -32 -31 -82 -13 -12 4 -9 -1 8 -11 15 -10 27 -25 27 -32 0 -7 4
-11 9 -8 11 7 44 -29 47 -52 1 -9 10 -37 20 -62 23 -58 29 -237 15 -425 -6
-77 -11 -161 -11 -187 1 -27 -4 -48 -9 -48 -6 0 -9 17 -8 38 2 33 -1 37 -20
35 -17 -2 -25 7 -39 45 -29 77 -49 100 -109 118 -48 15 -59 16 -96 4 -60 -20
-82 -41 -120 -117 -31 -62 -34 -76 -34 -153 0 -106 16 -161 60 -204 42 -42
119 -64 167 -47 47 17 44 7 -7 -25 -25 -16 -45 -33 -45 -37 0 -5 -4 -6 -9 -2
-5 3 -33 -4 -61 -15 -60 -24 -70 -25 -70 -6 0 8 -5 18 -10 21 -7 4 -9 -2 -4
-19 5 -23 3 -26 -22 -27 -27 -2 -26 -2 6 -8 20 -4 38 -2 42 4 5 6 8 1 9 -10 1
-17 2 -16 9 5 7 21 8 22 10 5 l1 -20 9 20 c5 11 9 15 9 9 1 -13 31 -15 31 -2
0 5 5 6 10 3 6 -3 10 -1 10 5 0 6 5 8 10 5 6 -3 10 -1 10 5 0 6 5 8 10 5 6 -3
10 -1 10 5 0 6 5 8 10 5 6 -4 24 5 41 19 17 14 34 26 39 26 16 0 108 97 139
148 18 28 34 52 36 52 2 0 3 -15 3 -32 -1 -60 -76 -175 -106 -163 -12 4 -12 3
-3 -9 9 -11 5 -18 -23 -35 -18 -12 -40 -29 -47 -38 -8 -9 7 -3 33 15 26 18 50
32 54 32 10 0 -63 -57 -115 -91 -25 -16 -42 -29 -37 -29 14 0 61 28 101 60
l40 32 7 -24 c7 -22 7 -22 5 3 -1 19 11 40 43 75 57 61 111 157 140 250 16 49
29 73 44 80 34 15 81 120 83 184 l1 55 50 14 c43 11 57 11 93 0 41 -13 43 -16
46 -54 5 -83 39 -164 83 -197 19 -13 30 -31 30 -45 0 -24 76 -189 92 -199 4
-3 8 -10 8 -15 0 -6 -6 -7 -12 -2 -13 8 -18 9 -39 12 -5 0 -7 6 -4 11 3 6 1
10 -4 10 -13 0 -14 -13 -4 -24 4 -4 8 -37 9 -74 1 -62 38 -435 49 -492 15 -78
23 -259 15 -324 -14 -112 -38 -148 -107 -161 -15 -2 -44 -10 -63 -16 -74 -23
-172 -28 -256 -13 -45 7 -90 17 -100 21 -16 6 -17 5 -6 -9 16 -20 21 -118 7
-118 -5 0 -4 -4 3 -9 15 -9 15 -20 1 -37 -13 -15 26 -30 120 -45 96 -15 267
-4 341 22 64 23 63 22 55 7 -4 -7 1 -4 9 6 9 11 16 16 16 11 0 -7 25 17 62 63
22 27 50 82 42 82 -3 0 1 11 10 25 9 14 14 25 10 25 -4 0 -1 7 6 15 8 10 10
19 4 25 -6 6 -6 49 -2 107 4 54 6 121 3 148 -2 28 -7 102 -10 165 -8 180 -15
240 -33 313 -13 56 -19 67 -34 64 -15 -4 -16 -3 -3 17 14 21 14 23 -7 22 -13
-1 -23 5 -24 14 -2 31 -5 35 -14 20 -8 -13 -10 -12 -10 3 0 9 6 17 14 17 20 0
29 17 15 26 -7 4 -9 3 -6 -3 3 -5 -1 -10 -9 -10 -8 0 -13 6 -10 14 3 7 2 13
-3 13 -4 0 -8 7 -8 15 0 11 12 5 36 -18 82 -79 243 -160 382 -192 152 -35 457
-30 572 11 22 8 43 11 48 8 5 -3 9 0 9 5 0 6 7 11 15 11 9 0 27 7 41 16 13 9
27 14 30 11 3 -3 -4 -8 -15 -12 -13 -4 -18 -11 -14 -22 4 -11 2 -14 -5 -9 -7
4 -12 3 -12 -3 0 -5 5 -13 11 -17 8 -4 7 -9 -2 -15 -11 -7 -11 -11 -2 -17 9
-6 7 -16 -8 -41 -12 -19 -16 -37 -11 -40 5 -3 12 -16 16 -28 6 -18 3 -23 -11
-23 -12 0 -14 3 -6 8 8 5 9 13 3 22 -9 13 -10 13 -11 0 0 -8 -2 -23 -4 -32 -2
-12 3 -15 16 -13 16 3 17 1 9 -16 -6 -10 -15 -19 -21 -19 -6 0 -18 -7 -26 -16
-14 -13 -14 -20 -4 -36 7 -11 10 -23 7 -26 -3 -3 -6 0 -6 7 0 7 -5 9 -12 5 -7
-4 -8 -3 -4 4 4 7 5 12 2 12 -3 0 -10 -10 -17 -22 -9 -18 -9 -20 4 -15 9 3 18
-1 21 -9 3 -7 2 -13 -2 -13 -19 3 -23 -2 -12 -16 10 -12 7 -15 -15 -21 -14 -3
-24 -8 -21 -11 8 -8 -27 -42 -38 -36 -6 3 -6 0 1 -7 9 -10 8 -16 -3 -27 -8 -8
-14 -24 -14 -36 0 -17 -2 -19 -9 -7 -6 8 -7 18 -5 22 3 4 0 8 -6 8 -6 0 -10
-8 -8 -17 1 -10 -2 -24 -6 -32 -7 -11 -5 -13 8 -8 14 6 15 3 6 -13 -6 -11 -17
-20 -26 -20 -12 0 -12 -4 3 -27 17 -26 17 -26 -5 -21 -19 5 -22 3 -20 -15 2
-13 -2 -21 -9 -20 -22 5 -14 -17 10 -27 l22 -9 -22 0 c-26 -1 -42 -21 -16 -21
15 -1 14 -3 -6 -14 -17 -9 -20 -15 -11 -21 9 -6 9 -9 -1 -16 -11 -7 -11 -9 -1
-9 7 0 11 -4 8 -9 -3 -5 -15 -7 -26 -4 -14 4 -20 0 -20 -10 0 -8 -6 -18 -12
-21 -7 -3 2 -4 20 -1 26 3 31 1 23 -9 -7 -9 -7 -16 0 -23 7 -7 3 -11 -15 -12
-49 -3 -55 -4 -50 -13 3 -5 10 -5 16 -2 5 4 3 -5 -6 -18 -9 -14 -13 -28 -9
-31 3 -4 1 -7 -5 -7 -7 0 -12 5 -12 11 0 5 -4 7 -10 4 -6 -4 -4 -17 5 -35 14
-27 14 -29 -2 -23 -13 5 -15 3 -9 -12 7 -18 6 -18 -15 1 -21 18 -22 18 -16 0
9 -23 -8 -45 -31 -41 -9 1 -11 0 -4 -2 6 -3 12 -9 12 -14 0 -6 5 -7 12 -3 7 4
2 -6 -10 -23 -12 -17 -22 -37 -22 -43 0 -9 -4 -9 -17 1 -9 8 -14 9 -10 2 4 -7
-1 -14 -13 -18 -11 -3 -25 -16 -31 -27 -11 -20 -21 -32 -75 -93 -12 -13 -19
-27 -15 -31 3 -4 -2 -4 -11 -1 -18 6 -23 -2 -18 -32 1 -9 -4 -12 -15 -7 -13 4
-16 2 -11 -9 3 -9 0 -15 -9 -15 -9 0 -23 -4 -33 -9 -18 -10 -97 -30 -147 -37
-16 -3 -52 -9 -80 -14 -69 -14 -396 -30 -600 -30 -191 0 -461 24 -511 45 -19
8 -34 11 -34 8 0 -3 -6 -1 -12 4 -7 6 -31 16 -53 23 -22 7 -44 16 -50 20 -5 4
-34 15 -62 24 -30 10 -53 24 -53 31 0 8 -6 12 -12 10 -7 -2 -56 36 -108 86
l-95 90 102 -53 c76 -39 103 -58 104 -73 1 -17 2 -17 6 -2 2 9 9 15 14 12 5
-4 9 -4 9 -1 0 3 -30 22 -67 41 -102 54 -187 105 -195 118 -5 7 -7 23 -6 37 2
18 -2 25 -17 27 -11 2 -14 0 -7 -3 6 -3 12 -18 12 -33 0 -28 0 -28 -47 -20
-69 11 -73 11 -73 -8 0 -12 3 -14 11 -6 15 15 122 -44 115 -63 -4 -11 0 -13
17 -9 16 4 33 -3 60 -27 20 -19 37 -39 37 -46 0 -7 4 -11 9 -8 5 4 11 3 13 -1
1 -5 43 -44 91 -87 82 -74 95 -81 200 -119 128 -45 154 -52 257 -67 71 -11
127 -21 195 -34 129 -26 520 -27 695 -2 160 23 292 45 325 56 17 5 48 10 70
11 22 2 46 7 53 12 6 5 12 6 12 3 0 -4 10 -2 23 5 16 8 14 4 -8 -15 -16 -14
-36 -25 -42 -26 -7 0 -13 -4 -13 -8 0 -5 -7 -17 -16 -28 -8 -10 -13 -14 -10
-7 4 7 -1 9 -15 6 -13 -4 -16 -8 -9 -13 7 -5 6 -11 -6 -21 -15 -12 -17 -12 -9
0 6 10 4 12 -4 7 -7 -4 -11 -15 -9 -24 2 -10 -4 -26 -14 -36 -10 -11 -18 -26
-18 -33 0 -7 -9 -13 -21 -13 -11 0 -17 -4 -14 -10 3 -5 -2 -10 -12 -10 -14 0
-15 -2 -4 -9 9 -6 10 -11 2 -15 -6 -4 -9 -12 -6 -17 4 -5 0 -9 -7 -9 -11 0
-10 -2 0 -9 11 -7 11 -9 -2 -14 -9 -4 -16 -13 -16 -20 0 -8 -7 -20 -16 -28 -9
-7 -13 -21 -10 -32 3 -12 -4 -33 -16 -50 -12 -17 -18 -28 -12 -25 5 4 10 -2
10 -12 0 -13 -4 -16 -12 -10 -16 14 -25 0 -14 -21 7 -12 7 -20 0 -24 -5 -3
-10 -15 -10 -26 0 -11 -4 -18 -8 -15 -5 3 -8 -8 -7 -24 1 -17 -2 -30 -6 -30
-4 0 -6 -9 -4 -19 2 -13 -1 -18 -9 -15 -10 4 -12 -2 -8 -23 5 -25 4 -27 -11
-14 -15 12 -17 11 -17 -8 0 -12 5 -19 10 -16 13 8 13 -1 -1 -26 -18 -34 -42
-58 -52 -52 -5 3 -7 0 -5 -8 3 -8 10 -13 16 -12 6 2 9 -4 6 -12 -4 -8 -10 -13
-14 -10 -15 9 -40 -7 -40 -27 0 -10 -4 -16 -10 -13 -6 3 -7 -1 -4 -9 3 -9 1
-16 -5 -16 -17 0 -63 -49 -56 -59 3 -5 -4 -12 -15 -16 -11 -4 -18 -10 -15 -15
3 -5 1 -11 -5 -15 -5 -3 -10 -1 -10 6 0 7 -3 9 -7 5 -5 -4 -8 -13 -8 -19 0 -6
-15 -15 -33 -19 -20 -6 -30 -13 -26 -20 4 -6 3 -8 -4 -4 -6 3 -13 2 -17 -4 -4
-6 -11 -8 -16 -5 -5 4 -9 1 -9 -5 0 -6 -8 -10 -17 -9 -10 2 -30 0 -45 -4 -14
-4 -45 -9 -68 -12 -23 -3 -50 -9 -59 -14 -19 -9 -213 -8 -256 2 -29 7 -28 6 4
-9 36 -16 176 -44 223 -44 15 0 39 -5 55 -11 22 -8 24 -12 13 -19 -10 -7 -11
-10 -2 -10 6 0 12 -7 12 -16 0 -8 5 -12 11 -8 8 4 9 -1 4 -15 -4 -13 -1 -28 6
-37 10 -13 10 -17 -2 -25 -9 -6 -10 -9 -2 -9 7 0 17 -10 24 -21 9 -17 8 -20
-3 -13 -10 6 -11 5 -1 -8 7 -8 10 -18 6 -21 -3 -4 -2 -7 4 -7 6 0 9 -9 5 -22
-3 -14 -2 -19 6 -14 9 5 10 1 3 -16 -5 -13 -5 -33 0 -45 6 -16 5 -23 -4 -23
-8 0 -8 -3 2 -9 8 -5 9 -11 3 -15 -6 -4 -8 -25 -6 -50 4 -33 1 -45 -10 -49
-10 -4 -13 -13 -9 -23 4 -12 3 -15 -5 -10 -7 4 -12 1 -12 -8 0 -12 -6 -13 -30
-6 -16 5 -30 6 -30 2 0 -3 -7 3 -15 14 -8 10 -15 15 -15 9 0 -5 -4 -5 -8 2 -8
13 -130 48 -138 40 -3 -2 17 -15 43 -28 43 -22 52 -32 88 -106 22 -45 45 -82
50 -83 16 -1 50 -33 58 -52 3 -10 11 -18 17 -18 6 0 11 -10 10 -22 -4 -47 0
-54 15 -34 16 22 17 20 16 -39 0 -36 1 -37 9 -15 18 47 0 -95 -21 -170 -11
-40 -18 -75 -15 -77 5 -5 45 113 51 153 3 16 9 45 14 64 l9 35 1 -30 c0 -16
-4 -48 -9 -70 -5 -22 -11 -51 -14 -65 -6 -32 -35 -153 -50 -205 -6 -22 -15
-40 -21 -41 -5 0 -23 -6 -40 -13 -23 -10 -26 -14 -15 -21 8 -6 29 -10 45 -10
39 0 48 -7 73 -52 14 -25 17 -35 8 -32 -20 8 -29 -12 -13 -28 8 -7 12 -19 9
-27 -3 -8 0 -11 6 -7 8 4 10 -5 7 -28 -5 -37 17 -72 37 -60 7 4 8 2 4 -5 -4
-6 -11 -9 -15 -7 -18 11 -4 -40 14 -52 15 -10 16 -12 3 -8 -22 7 -34 -12 -18
-27 10 -9 11 -9 6 0 -4 8 1 11 15 10 l21 -1 -22 -18 c-18 -15 -19 -18 -5 -18
15 0 15 -1 1 -16 -9 -8 -16 -18 -16 -22 0 -3 5 -1 12 6 19 19 28 14 28 -17 0
-20 6 -31 18 -34 15 -4 15 -5 0 -6 -11 -1 -15 -7 -11 -21 3 -11 0 -20 -6 -20
-6 0 -11 -11 -11 -25 0 -14 -6 -25 -12 -26 -7 0 -2 -5 11 -10 13 -5 26 -7 29
-4 3 3 0 5 -6 5 -7 0 -12 5 -12 12 0 8 6 6 17 -4 15 -15 15 -19 0 -41 -15 -24
-15 -25 3 -20 24 6 26 -10 4 -32 -12 -11 -13 -19 -5 -28 5 -7 8 -23 4 -35 -6
-25 22 -76 38 -67 5 4 8 1 7 -7 -2 -8 6 -12 22 -11 14 1 18 0 8 -3 -10 -3 -18
-10 -18 -15 0 -6 -4 -8 -9 -4 -5 3 -12 1 -15 -4 -4 -5 -1 -13 5 -17 8 -5 8 -9
-2 -14 -9 -6 -9 -12 4 -25 10 -9 17 -22 17 -28 0 -7 -5 -6 -11 3 -9 12 -10 11
-6 -8 3 -14 -1 -26 -11 -32 -12 -7 -7 -8 20 -5 31 4 36 2 31 -11 -3 -8 -11
-13 -19 -10 -9 4 -12 -8 -11 -45 2 -36 6 -48 15 -44 7 3 10 0 7 -5 -3 -6 -1
-10 5 -10 6 0 8 -5 4 -11 -5 -8 -9 -8 -14 1 -5 8 -9 7 -14 -5 -9 -24 -8 -28 8
-22 12 5 14 -2 10 -30 -2 -19 -7 -40 -11 -47 -4 -6 0 -5 9 2 14 11 16 10 11
-8 -4 -14 -1 -20 8 -18 16 4 19 -24 4 -34 -6 -5 -6 -8 3 -8 6 0 12 -9 12 -20
0 -11 -4 -20 -10 -20 -14 0 -12 -34 3 -49 10 -10 7 -11 -15 -7 -25 4 -26 3
-16 -20 8 -17 14 -21 19 -12 6 9 10 8 15 -5 3 -10 4 -21 0 -24 -3 -3 2 -12 12
-19 14 -11 14 -13 2 -14 -12 0 -12 -2 -2 -8 17 -11 5 -42 -17 -42 -14 0 -14
-2 -1 -10 10 -6 16 -6 18 0 2 6 8 10 13 10 6 0 7 -4 4 -10 -3 -6 -3 -16 1 -22
5 -7 9 -21 9 -30 1 -14 -1 -15 -12 -7 -14 12 -19 -2 -5 -15 7 -7 8 -11 11 -37
0 -6 10 -8 22 -4 l21 7 -21 -21 c-12 -12 -26 -19 -31 -16 -6 4 -10 1 -10 -4 0
-6 7 -11 16 -11 9 0 12 -5 8 -12 -5 -8 0 -9 14 -6 14 4 20 2 16 -4 -4 -5 -21
-7 -38 -4 -24 4 -27 3 -13 -5 9 -5 17 -16 17 -23 0 -8 7 -16 15 -20 8 -3 15
-16 15 -30 0 -13 -7 -26 -15 -30 -8 -3 -15 0 -15 6 0 6 -2 9 -5 7 -4 -5 4 -36
25 -94 4 -11 4 -29 0 -40 -5 -13 -2 -26 8 -37 14 -16 14 -20 -1 -35 -13 -16
-14 -21 -2 -43 16 -28 20 -53 5 -30 -5 8 -13 11 -17 6 -4 -4 0 -13 10 -20 23
-17 22 -24 -5 -29 l-23 -4 23 -2 c26 -1 30 -21 5 -21 -14 0 -11 -5 10 -18 15
-10 24 -22 20 -26 -11 -10 -10 -76 1 -76 5 0 4 -6 -2 -12 -17 -22 -18 -52 -2
-66 13 -11 13 -11 -2 -6 -22 7 -23 -9 -3 -29 12 -12 13 -25 6 -62 -8 -40 -6
-48 10 -58 11 -7 19 -16 19 -21 0 -4 -7 -3 -15 4 -12 10 -15 10 -15 -4 0 -9 6
-16 13 -17 6 0 3 -4 -8 -9 -19 -8 -19 -9 2 -9 12 -1 24 -5 27 -10 9 -14 -4
-41 -20 -41 -19 0 -18 -15 3 -36 16 -15 16 -17 0 -29 -15 -11 -14 -13 9 -26
24 -12 24 -14 8 -26 -14 -10 -14 -13 -3 -13 12 0 12 -2 -1 -11 -12 -8 -12 -12
-2 -16 10 -4 9 -9 -5 -20 -15 -12 -15 -14 -2 -10 13 4 15 1 12 -14 -4 -16 -9
-17 -27 -7 -19 10 -20 10 -7 -5 7 -10 20 -17 28 -17 8 0 11 -5 8 -10 -4 -6
-12 -8 -18 -4 -7 3 -4 -1 6 -9 21 -17 22 -27 3 -27 -8 0 -17 -4 -20 -9 -4 -5
4 -7 16 -4 19 4 20 3 8 -6 -8 -6 -10 -11 -4 -11 6 0 11 -7 11 -15 0 -8 -8 -15
-17 -15 -9 0 -17 -6 -17 -14 0 -10 10 -13 36 -10 20 2 28 1 18 -2 -9 -3 -15
-9 -12 -14 3 -4 -4 -6 -15 -3 -20 5 -24 -3 -21 -39 1 -9 -4 -18 -11 -21 -7 -2
-1 -2 13 0 22 3 27 0 31 -21 6 -29 -1 -32 -22 -14 -12 11 -12 10 -2 -3 10 -14
9 -18 -4 -23 -9 -4 -14 -9 -11 -13 4 -3 13 0 22 7 12 10 16 8 25 -15 5 -14 10
-34 9 -43 0 -12 -3 -9 -10 7 -5 13 -11 22 -12 20 -1 -2 -9 -13 -17 -23 -14
-18 -13 -19 3 -13 11 4 17 2 17 -7 0 -8 8 -17 18 -21 15 -6 14 -8 -5 -16 -31
-11 -29 -25 5 -34 25 -7 26 -8 6 -15 -28 -11 -58 -57 -42 -66 7 -5 8 -3 3 6
-5 8 -4 11 2 7 6 -4 9 -18 8 -32 -2 -14 1 -27 6 -31 5 -3 9 -10 9 -16 0 -5 -9
0 -20 13 -10 13 -19 19 -20 12 0 -6 5 -15 10 -18 6 -4 8 -15 5 -26 -4 -11 -2
-19 5 -19 6 0 8 5 5 10 -3 6 -2 10 3 10 17 0 22 -13 10 -28 -7 -8 -13 -21 -15
-30 -1 -9 -6 -18 -11 -20 -6 -2 -6 -17 -2 -37 6 -25 4 -35 -7 -39 -8 -3 -11
-11 -8 -17 4 -6 0 -9 -10 -7 -10 2 -20 -4 -22 -12 -4 -13 -3 -13 6 0 9 13 11
13 11 -1 0 -23 26 -44 33 -27 3 7 4 3 4 -9 -1 -12 -5 -19 -11 -16 -5 4 -7 0
-4 -9 4 -8 2 -21 -4 -29 -8 -11 -9 -11 -5 3 3 9 0 22 -8 28 -12 10 -14 5 -10
-27 2 -21 4 -44 4 -52 1 -7 7 -11 14 -8 8 3 14 -1 14 -9 0 -8 -4 -14 -8 -14
-9 0 -19 -37 -11 -45 3 -3 6 -14 7 -25 1 -15 -3 -18 -21 -14 -12 3 -25 0 -29
-6 -5 -7 0 -11 11 -10 32 4 40 0 24 -10 -13 -8 -13 -11 -1 -22 8 -7 11 -8 8
-2 -4 7 -1 14 6 17 19 7 10 -42 -12 -66 -15 -17 -14 -20 4 -33 13 -10 15 -14
4 -14 -8 0 -20 -9 -27 -20 -7 -12 -8 -20 -2 -20 5 0 10 5 10 10 0 6 7 10 15
10 18 0 20 -16 3 -24 -9 -3 -8 -8 5 -16 18 -12 15 -30 -6 -30 -7 0 -6 4 3 10
12 8 9 10 -13 10 -25 0 -26 -2 -15 -20 7 -11 22 -20 33 -21 16 0 15 -3 -7 -13
-23 -10 -26 -14 -15 -25 10 -11 9 -12 -2 -6 -9 5 -12 4 -7 -3 4 -7 16 -12 27
-12 13 0 18 4 13 12 -4 7 -3 8 5 4 9 -6 9 -11 0 -22 -6 -7 -15 -11 -20 -8 -5
3 -9 -2 -9 -11 0 -9 4 -14 8 -11 5 3 9 -1 9 -9 0 -8 -5 -11 -10 -8 -6 4 -8 0
-4 -10 3 -9 0 -18 -9 -21 -8 -3 -14 -12 -14 -20 0 -18 27 -29 33 -13 3 7 4 2
4 -11 -1 -14 -6 -21 -15 -17 -7 2 -11 1 -8 -3 2 -4 1 -14 -5 -22 -6 -10 -9
-11 -9 -2 0 6 -3 12 -7 12 -13 0 -9 -60 5 -65 6 -2 12 0 12 5 0 6 5 10 11 10
8 0 8 -5 -1 -15 -7 -8 -16 -12 -21 -9 -5 3 -9 -2 -9 -10 0 -9 3 -15 8 -15 18
3 32 -2 32 -12 0 -5 -5 -7 -12 -3 -8 5 -9 0 -6 -14 4 -12 2 -22 -4 -22 -5 0
-6 -4 -3 -10 3 -5 2 -10 -4 -10 -5 0 -12 6 -14 13 -3 7 -6 4 -6 -7 -1 -15 4
-17 24 -12 14 4 25 2 25 -4 0 -5 -7 -10 -15 -10 -8 0 -14 -3 -14 -8 3 -18 -2
-24 -14 -16 -7 5 -4 1 6 -8 17 -16 17 -18 3 -24 -15 -6 -14 -8 5 -22 15 -10
18 -17 9 -22 -9 -6 -9 -13 -1 -29 10 -17 9 -25 -3 -36 -26 -26 -30 -55 -9 -70
17 -14 17 -14 -7 -15 -20 0 -22 -2 -10 -10 13 -8 12 -10 -4 -10 -18 0 -18 -1
-1 -20 10 -11 13 -20 7 -20 -6 0 -14 -10 -18 -22 -4 -13 -12 -26 -18 -30 -6
-5 -2 -8 12 -8 23 0 30 -14 12 -25 -16 -10 -11 -35 8 -36 11 0 7 -4 -10 -11
-16 -5 -28 -15 -28 -21 0 -7 -4 -6 -10 3 -6 9 -10 10 -10 3 0 -6 5 -15 11 -18
7 -5 3 -14 -10 -26 -12 -11 -18 -26 -14 -35 3 -9 -3 -21 -17 -31 -22 -16 -22
-17 -4 -23 17 -6 15 -9 -11 -23 -20 -11 -24 -16 -12 -17 10 0 17 -8 17 -19 0
-12 7 -18 18 -17 12 1 16 -5 15 -21 -2 -15 3 -23 13 -23 9 0 12 5 8 12 -4 7
-3 8 5 4 9 -6 9 -11 -1 -23 -10 -12 -9 -18 7 -30 11 -7 30 -16 43 -20 27 -6
30 -23 3 -18 -14 3 -18 -1 -14 -11 4 -10 -4 -14 -28 -15 l-34 -1 33 -9 c39
-12 42 -29 5 -30 l-28 -1 32 -11 c17 -7 35 -16 40 -21 4 -5 3 -6 -4 -3 -14 9
-43 -2 -43 -15 0 -5 4 -7 8 -4 4 2 14 1 22 -5 12 -7 10 -9 -7 -9 -26 0 -21
-30 6 -31 13 0 13 -2 1 -6 -8 -3 -18 -12 -23 -19 -4 -8 -15 -10 -25 -7 -15 6
-15 5 -3 -10 7 -9 21 -17 30 -18 13 0 14 -1 1 -6 -8 -3 -23 -14 -33 -25 -22
-23 -8 -49 23 -43 11 2 22 0 25 -6 4 -5 -4 -9 -17 -9 -13 0 -34 -9 -48 -20
-14 -11 -31 -20 -37 -20 -7 0 -13 -5 -13 -11 0 -7 13 -9 38 -5 26 4 31 3 17
-4 -11 -5 -15 -9 -10 -10 6 -1 0 -5 -12 -10 -15 -6 -21 -15 -17 -25 4 -8 1
-15 -6 -15 -7 0 -10 -7 -7 -15 4 -8 2 -17 -4 -20 -5 -4 -6 -11 -3 -17 4 -6 2
-8 -4 -4 -6 3 -13 -3 -17 -14 -3 -11 -13 -20 -22 -20 -12 0 -11 -5 7 -20 25
-22 20 -26 -11 -10 -14 8 -19 7 -19 -2 0 -21 80 -40 141 -34 30 3 45 3 34 0
-11 -3 -24 -10 -29 -15 -6 -5 -20 -9 -33 -9 -13 0 -23 -6 -23 -14 0 -7 8 -13
18 -13 37 0 46 -6 17 -12 -16 -4 -33 -3 -36 1 -9 13 -59 20 -59 8 0 -5 9 -10
19 -10 11 0 23 -4 26 -10 5 -9 89 -5 105 5 3 2 12 0 20 -6 11 -6 8 -9 -13 -9
-16 0 -26 -4 -22 -10 3 -5 17 -10 30 -10 13 0 27 -5 31 -11 5 -8 -6 -10 -35
-7 -46 4 -56 -8 -13 -18 67 -15 69 -16 44 -25 -13 -5 -20 -13 -17 -19 4 -6 -5
-10 -19 -10 -32 0 -43 -17 -14 -23 l23 -4 -25 -11 c-16 -7 -19 -12 -10 -13 8
-1 20 -3 25 -4 6 -2 14 -3 19 -4 18 -2 -43 -41 -66 -42 -20 -1 -18 -3 12 -16
35 -16 35 -16 10 -23 -25 -6 -25 -6 -2 -12 12 -3 22 -11 22 -17 0 -14 -23 -14
-37 0 -6 6 -17 8 -23 4 -9 -6 -6 -13 11 -26 l24 -18 -23 4 c-12 2 -27 7 -32
10 -19 12 -32 -6 -14 -19 16 -12 15 -14 -9 -20 -15 -3 -27 -11 -27 -17 0 -6 9
-9 20 -6 13 3 20 0 20 -10 0 -8 -4 -12 -8 -9 -4 2 -14 1 -22 -5 -13 -7 -13 -9
0 -9 8 -1 29 -7 45 -15 29 -13 29 -13 -20 -9 -50 4 -50 4 -20 -10 l30 -15 -47
-1 c-39 0 -46 -3 -41 -16 3 -8 12 -13 19 -10 8 3 14 1 14 -4 0 -6 -12 -10 -26
-10 -23 0 -25 -2 -14 -16 11 -13 10 -16 -8 -21 -26 -6 -19 -23 9 -23 10 0 19
-4 19 -10 0 -5 -3 -9 -7 -9 -28 4 -63 -3 -58 -11 4 -6 11 -8 16 -5 5 4 9 1 9
-4 0 -6 6 -11 14 -11 8 0 18 -5 22 -11 5 -9 -1 -10 -22 -5 -53 14 -64 15 -64
6 0 -15 35 -30 85 -37 25 -3 48 -10 51 -14 3 -5 17 -9 32 -9 19 0 23 -3 15
-11 -9 -9 -23 -7 -55 6 -23 9 -70 19 -103 21 -55 5 -59 4 -41 -11 11 -8 30
-15 42 -15 13 0 26 -5 30 -11 3 -6 16 -8 28 -5 11 2 30 -2 41 -10 19 -14 17
-15 -22 -13 -24 2 -43 6 -43 10 0 9 -81 29 -92 23 -15 -9 -8 -24 11 -24 11 0
22 -4 26 -10 3 -5 12 -7 20 -4 8 3 22 -1 30 -10 9 -9 30 -16 46 -16 18 0 28
-4 24 -10 -9 -14 -47 -12 -87 4 -21 9 -39 11 -48 6 -20 -13 -6 -23 30 -22 16
0 30 -4 30 -9 0 -5 11 -9 25 -9 14 0 25 -4 25 -10 0 -15 -66 -12 -107 5 -20 8
-38 13 -41 11 -9 -9 27 -36 47 -36 12 0 21 -4 21 -10 0 -5 -16 -10 -36 -10
-47 0 -35 -16 18 -24 23 -4 49 -13 58 -20 8 -8 24 -17 35 -20 11 -3 2 -3 -20
0 -22 3 -51 5 -64 5 -13 -1 -30 4 -37 10 -7 6 -21 9 -31 6 -14 -3 -10 -7 14
-17 18 -6 30 -16 27 -21 -3 -5 -2 -9 3 -8 18 3 33 -2 33 -11 0 -5 -7 -10 -15
-10 -31 0 -13 -17 33 -32 l47 -15 -39 -8 c-26 -5 -46 -4 -58 4 -10 6 -24 9
-29 5 -12 -7 44 -44 67 -44 8 0 12 -5 9 -10 -4 -7 -12 -7 -25 0 -24 13 -70 13
-70 0 0 -5 7 -10 15 -10 9 0 26 -10 38 -21 l22 -22 -45 7 c-24 4 -41 4 -37 0
3 -4 2 -16 -4 -27 -7 -12 -7 -17 -1 -13 6 3 21 2 34 -3 23 -10 23 -10 -5 -10
-25 -1 -26 -3 -17 -21 10 -18 8 -20 -25 -20 -42 0 -39 -15 5 -25 35 -8 31 -25
-6 -25 -13 0 -24 -4 -24 -10 0 -5 5 -10 10 -10 21 0 9 -20 -15 -26 -20 -5 -24
-11 -19 -30 5 -18 2 -24 -11 -24 -9 0 -15 -6 -13 -12 3 -7 -5 -20 -16 -30
l-21 -17 24 -1 c19 0 21 -3 12 -14 -8 -10 -9 -16 -1 -21 13 -8 13 -25 -1 -25
-6 0 -18 -9 -28 -21 -14 -17 -20 -19 -45 -9 -35 13 -40 9 -22 -16 15 -20 23
-20 204 -15 66 1 107 18 152 62 20 19 49 45 65 59 17 14 52 53 79 88 26 35 58
74 70 87 11 13 26 29 31 37 42 56 63 88 80 120 11 21 23 38 27 38 5 0 8 6 8
13 0 7 13 38 29 68 16 30 34 78 40 107 6 29 20 71 30 93 11 22 18 51 15 64 -2
14 -1 25 4 25 5 0 8 29 7 65 0 36 2 71 6 77 4 7 4 17 0 23 -11 13 -21 92 -13
100 10 10 10 135 0 135 -5 0 -5 7 0 18 9 17 9 28 -2 85 -4 17 -2 26 4 22 6 -4
7 3 1 18 -6 14 -8 27 -6 28 9 10 12 70 4 75 -6 3 -7 15 -3 27 10 27 13 307 4
307 -4 0 -6 46 -6 103 0 56 -1 154 -3 217 -2 63 -2 120 -1 125 1 6 1 15 0 20
-1 6 -2 70 -3 143 0 86 -4 132 -11 132 -7 0 -8 3 -1 8 11 7 15 202 4 202 -3 0
-7 64 -8 143 -1 78 -3 166 -5 195 -2 28 0 52 4 52 5 0 7 10 4 22 -14 59 -19
191 -9 208 5 9 4 11 -3 6 -7 -4 -12 -3 -12 3 0 5 5 13 10 16 7 4 7 13 0 24 -5
10 -8 61 -7 114 1 52 -1 93 -5 90 -13 -7 -9 22 4 35 9 9 9 12 0 12 -7 0 -10
12 -8 33 3 17 -2 42 -10 54 -13 20 -12 22 3 16 16 -6 16 -5 4 11 -11 13 -15
52 -15 156 -1 77 -4 140 -8 140 -4 0 -4 16 -1 35 4 22 1 41 -8 52 -12 15 -12
16 2 11 13 -5 16 -2 12 13 -3 10 -8 19 -12 19 -3 0 -7 33 -8 73 -2 39 -5 95
-8 122 -3 28 -8 75 -10 105 -7 97 -11 125 -18 137 -4 6 -2 23 5 38 7 16 8 29
2 33 -5 4 -9 39 -10 77 -1 87 -10 181 -20 196 -4 7 -9 59 -11 118 -2 67 -8
108 -16 113 -9 6 -9 8 0 8 7 0 10 11 6 33 -3 17 -6 40 -6 50 -1 9 -6 17 -11
17 -5 0 -6 3 -3 6 3 4 2 15 -3 25 -6 11 -6 20 -1 24 11 6 10 45 -1 45 -4 0 -7
12 -7 28 0 41 -2 59 -13 147 -5 44 -10 90 -9 103 0 13 -4 32 -9 43 -8 14 -7
19 1 19 8 0 8 4 1 13 -6 6 -10 15 -10 20 0 10 -12 154 -18 202 -2 22 -9 59
-15 82 -6 23 -9 56 -7 72 2 17 1 32 -3 33 -4 2 -9 28 -10 58 -1 30 -6 68 -10
83 -5 16 -11 59 -14 95 -3 37 -8 85 -12 107 -4 22 -6 46 -4 53 1 6 -2 12 -6
12 -4 0 -9 28 -9 63 -1 58 -5 96 -23 257 -3 36 -8 149 -10 252 -3 186 -2 188
24 240 57 113 99 168 130 167 20 0 20 0 0 -9 -13 -6 -15 -9 -5 -9 44 -2 43 13
-8 145 -28 71 -68 174 -89 229 -22 55 -52 120 -67 144 -24 37 -30 42 -38 28
-5 -10 -15 -17 -23 -17 -7 0 -16 -6 -18 -12 -4 -10 -6 -10 -6 -1 -1 9 -8 10
-26 3 -16 -6 -34 -6 -50 0 -24 9 -24 10 -9 52 23 67 57 121 91 144 17 11 69
31 114 44 46 13 119 40 162 62 43 21 82 36 86 33 12 -7 68 23 75 40 8 22 -13
29 -83 27 l-64 -3 7 168 c4 92 9 179 11 193 2 14 4 30 4 36 1 6 27 31 59 55
78 60 188 161 184 172 -1 5 2 6 7 3 5 -3 24 13 42 36 18 24 39 48 46 55 8 6
14 15 14 20 -1 4 5 8 12 8 6 1 11 6 9 13 -1 7 5 15 13 18 8 4 15 14 15 24 0
10 9 22 20 25 11 3 20 11 20 16 0 5 11 22 25 37 14 15 32 42 41 60 8 18 22 36
30 39 8 3 11 9 8 14 -3 5 0 9 5 9 6 0 11 6 11 13 0 6 14 26 30 44 17 18 30 35
30 39 0 4 8 13 18 21 11 10 12 12 2 8 -8 -4 -6 1 4 9 11 9 16 16 12 16 -5 0
-3 7 4 15 7 8 9 15 4 15 -5 0 -1 5 9 11 9 5 17 19 17 30 0 11 4 18 9 15 5 -3
11 4 14 15 3 12 10 18 16 14 7 -3 11 2 11 14 0 12 5 21 10 21 6 0 10 5 10 11
0 5 -5 7 -12 3 -7 -5 -8 -3 -4 5 5 7 15 10 23 7 8 -3 12 -2 9 2 -3 5 2 21 10
36 16 31 19 49 4 26 -8 -12 -10 -12 -16 3 -4 12 0 23 12 32 11 7 19 19 19 27
0 7 10 14 23 16 22 3 32 22 11 22 -6 0 -9 6 -6 13 2 6 11 11 20 9 13 -2 16 5
13 42 -2 33 1 43 10 39 7 -2 14 -12 16 -21 3 -13 5 -12 10 6 3 12 2 20 -2 17
-5 -3 -11 -1 -15 5 -3 5 3 10 14 10 12 0 21 5 21 11 0 5 -6 7 -12 3 -10 -6
-10 -5 -1 8 7 8 9 18 5 23 -4 4 4 4 16 0 21 -6 23 -4 21 17 -2 12 1 24 5 25
15 3 48 82 40 95 -5 8 -2 9 10 5 10 -4 15 -3 11 3 -3 5 -1 18 5 27 11 17 11
17 6 1 -10 -32 10 -19 22 15 6 17 28 49 47 70 19 21 35 42 35 46 0 20 57 55
90 56 31 0 35 3 38 28 3 26 16 35 125 87 118 57 167 90 167 111 0 6 5 7 11 3
13 -8 101 75 93 88 -3 5 0 7 8 6 7 -2 12 5 12 14 -1 10 2 16 6 13 13 -8 60 62
54 79 -4 10 -1 16 9 16 8 0 18 7 21 16 3 8 2 12 -4 9 -6 -3 -10 -2 -10 4 0 5
6 14 13 18 25 16 40 70 43 153 2 81 1 86 -26 117 -21 23 -30 28 -34 18 -4 -12
-10 -12 -41 0 -36 16 -177 17 -168 3 2 -5 -1 -8 -6 -8 -6 0 -11 4 -11 9 0 5
-3 18 -6 28 -4 13 -3 14 4 5 7 -11 10 -9 15 7 5 20 32 27 76 22 7 -2 10 2 7 8
-4 6 4 7 24 1 16 -5 32 -5 35 0 7 12 43 0 49 -17 3 -8 10 -11 16 -8 5 3 10 1
10 -6 0 -7 2 -10 5 -7 12 12 -19 57 -54 76 -82 46 -177 35 -278 -32 -29 -19
-58 -38 -64 -42 -9 -5 -11 11 -6 67 3 41 2 65 -2 54 -5 -13 -10 1 -15 50 -11
108 -34 179 -75 227 l-36 42 0 111 c0 104 1 110 16 91 59 -77 94 -175 103
-286 3 -36 6 -69 6 -75 1 -5 10 13 22 40 25 60 29 178 31 865 2 382 -1 461
-16 560 -43 280 -128 546 -224 705 -144 240 -234 332 -529 547 -74 54 -212
120 -345 166 -64 22 -135 50 -156 61 -111 56 -372 126 -563 151 -140 18 -452
21 -560 5z m65 -1985 c3 -6 -1 -7 -9 -4 -18 7 -21 14 -7 14 6 0 13 -4 16 -10z
m30 -110 c0 -43 -5 -49 -25 -25 -10 12 -9 20 4 40 9 14 17 25 19 25 1 0 2 -18
2 -40z m945 30 c-98 -7 -133 -17 -181 -50 -35 -26 -76 -99 -89 -159 l-9 -46 4
49 c6 57 48 140 84 165 55 38 104 50 196 49 l90 -1 -95 -7z m298 -17 c-10 -2
-26 -2 -35 0 -10 3 -2 5 17 5 19 0 27 -2 18 -5z m-581 -295 c-2 -13 -4 -5 -4
17 -1 22 1 32 4 23 2 -10 2 -28 0 -40z m10 -125 c-3 -10 -5 -4 -5 12 0 17 2
24 5 18 2 -7 2 -21 0 -30z m837 1 c3 -8 2 -12 -4 -9 -6 3 -10 10 -10 16 0 14
7 11 14 -7z m9 -94 c3 -11 2 -19 -2 -18 -18 2 -21 -4 -11 -22 8 -15 8 -20 -2
-21 -11 0 -11 -2 0 -6 10 -4 10 -8 1 -19 -10 -12 -8 -13 7 -8 15 5 16 4 4 -4
-21 -15 -35 0 -50 55 -12 41 -12 47 4 59 22 16 42 9 49 -16z m27 0 c0 -5 -2
-10 -4 -10 -3 0 -8 5 -11 10 -3 6 -1 10 4 10 6 0 11 -4 11 -10z m21 -113 c-10
-9 -11 -8 -5 6 3 10 9 15 12 12 3 -3 0 -11 -7 -18z m-27 -79 c6 -4 0 -7 -15
-6 -20 2 -25 8 -27 33 l-3 30 18 -25 c9 -14 22 -28 27 -32z m-1844 -18 c0 -43
-26 -90 -50 -90 -25 0 -27 47 -5 90 21 42 55 41 55 0z m1173 6 c9 -22 -12 -85
-31 -95 -27 -13 -42 -2 -42 33 0 56 57 104 73 62z m667 -15 c0 -5 7 -17 16
-26 9 -9 17 -31 17 -50 1 -19 5 -35 9 -35 4 0 8 -4 8 -10 0 -5 -8 -7 -17 -4
-17 5 -17 5 0 -9 10 -8 15 -21 11 -31 -9 -22 -24 -20 -24 4 0 11 -4 20 -8 20
-9 0 -11 9 -15 54 -1 13 -6 22 -11 18 -5 -3 -7 5 -4 16 4 12 2 20 -3 16 -10
-6 -12 7 -3 30 7 17 24 22 24 7z m-1544 -101 c1 -68 -3 -90 -13 -94 -10 -4
-13 -1 -8 14 11 35 9 119 -4 134 -10 12 -9 16 6 25 10 6 18 11 18 11 0 0 0
-40 1 -90z m-33 -155 c-3 -9 -8 -14 -10 -11 -3 3 -2 9 2 15 9 16 15 13 8 -4z
m3 -153 c-17 -16 -18 -16 -5 5 7 12 15 20 18 17 3 -2 -3 -12 -13 -22z m1109
-32 c13 -6 15 -9 5 -9 -8 0 -22 4 -30 9 -18 12 -2 12 25 0z m96 -21 c57 -11
318 -14 350 -4 11 4 19 2 19 -3 0 -26 -353 -20 -422 8 -32 12 -11 12 53 -1z
m466 5 c-3 -3 -12 -4 -19 -1 -8 3 -5 6 6 6 11 1 17 -2 13 -5z m53 -515 c0 -11
-4 -18 -10 -14 -5 3 -7 12 -3 20 7 21 13 19 13 -6z m-2470 -651 c10 -6 7 -7
-10 -2 -14 3 -32 11 -40 16 -10 6 -7 7 10 2 14 -3 32 -11 40 -16z m2654 -32
c-3 -9 -10 -16 -15 -16 -5 0 -4 9 3 20 14 22 21 20 12 -4z m-1114 -1250 c0 -2
-7 -7 -16 -10 -8 -3 -12 -2 -9 4 6 10 25 14 25 6z m-203 -1188 c-3 -8 -6 -5
-6 6 -1 11 2 17 5 13 3 -3 4 -12 1 -19z m-7 -50 c0 -2 -7 -21 -15 -43 -8 -22
-14 -55 -15 -72 0 -18 -4 -33 -10 -33 -13 0 -13 3 6 83 9 37 21 67 25 67 5 0
9 -1 9 -2z m100 -1014 c0 -8 -19 -13 -24 -6 -3 5 1 9 9 9 8 0 15 -2 15 -3z
m196 -2270 c18 -14 18 -14 -6 -3 -31 14 -36 19 -24 19 6 0 19 -7 30 -16z m19
-464 c3 -5 1 -10 -4 -10 -6 0 -11 5 -11 10 0 6 2 10 4 10 3 0 8 -4 11 -10z
m92 -192 c-3 -7 -5 -2 -5 12 0 14 2 19 5 13 2 -7 2 -19 0 -25z m-134 -59 c-8
-8 -13 -7 -18 2 -5 8 -4 10 3 5 7 -4 12 -2 12 5 0 7 3 9 7 6 4 -4 2 -12 -4
-18z m-3 -243 c0 -11 -19 -15 -25 -6 -3 5 1 10 9 10 9 0 16 -2 16 -4z m-10
-608 c0 -19 -16 -5 -17 14 -2 18 0 20 7 8 5 -8 10 -18 10 -22z m2 -50 c-7 -7
-12 -8 -12 -2 0 14 12 26 19 19 2 -3 -1 -11 -7 -17z m-29 -83 c-3 -9 -8 -14
-10 -11 -3 3 -2 9 2 15 9 16 15 13 8 -4z m-17 -147 c4 -7 3 -8 -4 -4 -7 4 -12
2 -12 -5 0 -7 -3 -10 -6 -6 -6 5 3 27 11 27 2 0 7 -5 11 -12z m251 -337 c0
-11 -5 -18 -9 -15 -4 3 -5 11 -1 19 7 21 12 19 10 -4z m-263 -26 c-4 -8 -8
-15 -10 -15 -2 0 -4 7 -4 15 0 8 4 15 10 15 5 0 7 -7 4 -15z m-9 -35 c3 -5 -3
-10 -14 -10 -12 0 -21 5 -21 10 0 6 6 10 14 10 8 0 18 -4 21 -10z m272 -92
c-3 -7 -5 -2 -5 12 0 14 2 19 5 13 2 -7 2 -19 0 -25z m0 -200 c-3 -7 -5 -2 -5
12 0 14 2 19 5 13 2 -7 2 -19 0 -25z m10 -155 c-3 -10 -5 -2 -5 17 0 19 2 27
5 18 2 -10 2 -26 0 -35z m2 -85 c-2 -52 -2 -53 -8 -13 -4 22 -5 46 -3 53 8 25
12 11 11 -40z m10 -186 c1 -31 -1 -53 -5 -49 -5 4 -9 35 -10 68 0 33 2 56 6
49 4 -6 8 -36 9 -68z m-282 32 c-3 -3 -12 -4 -19 -1 -8 3 -5 6 6 6 11 1 17 -2
13 -5z m280 -123 c-1 -16 -5 -27 -8 -25 -10 6 -8 54 2 54 4 0 7 -13 6 -29z m3
-154 c0 -56 1 -113 2 -127 3 -53 -2 -110 -10 -110 -4 0 -7 69 -6 152 1 84 -2
160 -6 169 -5 9 -7 19 -3 22 16 17 23 -13 23 -106z m-280 -163 c0 -2 -18 -4
-40 -4 -22 0 -40 3 -40 8 0 4 18 6 40 4 22 -2 40 -6 40 -8z m272 -124 c3 -17
1 -33 -4 -36 -4 -3 -8 11 -8 30 0 44 6 47 12 6z m-292 0 c9 -5 -4 -6 -30 -3
-25 3 -49 10 -55 15 -12 10 63 0 85 -12z m-40 -26 c65 -18 81 -29 25 -20 -64
12 -115 28 -115 39 0 5 8 6 18 2 9 -4 42 -13 72 -21z m-35 -35 c5 -5 17 -9 28
-9 10 0 15 -5 12 -11 -5 -7 -15 -5 -31 6 -14 9 -30 15 -37 14 -26 -3 -47 1
-47 11 0 11 60 2 75 -11z m356 -32 c-8 -8 -11 -7 -11 4 0 20 13 34 18 19 3 -7
-1 -17 -7 -23z m-376 -18 c15 -14 -7 -10 -35 7 l-25 15 25 -7 c14 -3 29 -10
35 -15z m45 -5 c0 -2 -7 -4 -15 -4 -8 0 -15 4 -15 10 0 5 7 7 15 4 8 -4 15 -8
15 -10z m-18 -88 c7 4 8 2 4 -5 -9 -13 -26 -5 -25 12 0 9 2 8 6 -1 2 -6 10 -9
15 -6z m-35 -92 c-3 -3 -12 -4 -19 -1 -8 3 -5 6 6 6 11 1 17 -2 13 -5z m-57
-34 c11 -7 7 -10 -17 -10 -17 0 -35 5 -38 10 -8 13 35 13 55 0z"/>
<path d="M4690 15342 c-184 -75 -332 -143 -326 -149 2 -3 23 5 47 17 23 12 53
23 66 25 20 2 23 -2 24 -34 l1 -36 7 35 c9 45 18 60 37 60 8 0 14 4 14 9 0 5
16 8 35 6 27 -3 35 1 40 17 4 11 9 17 12 14 3 -3 22 3 42 14 20 10 70 33 111
51 41 17 77 33 79 35 17 15 -47 -7 -189 -64z"/>
<path d="M4788 15313 c7 -3 16 -2 19 1 4 3 -2 6 -13 5 -11 0 -14 -3 -6 -6z"/>
<path d="M4421 15197 c-20 -12 -29 -23 -22 -25 7 -2 25 7 39 22 31 31 28 31
-17 3z"/>
<path d="M4265 15156 c-66 -32 -53 -33 16 -2 30 14 50 25 44 25 -5 1 -32 -10
-60 -23z"/>
<path d="M4845 15150 c3 -5 11 -10 16 -10 6 0 7 5 4 10 -3 6 -11 10 -16 10 -6
0 -7 -4 -4 -10z"/>
<path d="M4708 15143 c7 -3 16 -2 19 1 4 3 -2 6 -13 5 -11 0 -14 -3 -6 -6z"/>
<path d="M4778 15143 c7 -3 16 -2 19 1 4 3 -2 6 -13 5 -11 0 -14 -3 -6 -6z"/>
<path d="M4497 15129 c7 -7 15 -10 18 -7 3 3 -2 9 -12 12 -14 6 -15 5 -6 -5z"/>
<path d="M4638 15133 c7 -3 16 -2 19 1 4 3 -2 6 -13 5 -11 0 -14 -3 -6 -6z"/>
<path d="M4350 15120 c8 -5 20 -10 25 -10 6 0 3 5 -5 10 -8 5 -19 10 -25 10
-5 0 -3 -5 5 -10z"/>
<path d="M4428 15123 c7 -3 16 -2 19 1 4 3 -2 6 -13 5 -11 0 -14 -3 -6 -6z"/>
<path d="M4122 15070 c-30 -31 -71 -61 -112 -80 -36 -17 -54 -28 -40 -24 53
14 136 64 155 93 13 20 26 29 35 26 8 -4 11 -3 7 1 -4 4 1 13 11 20 12 9 13
13 4 14 -8 0 -35 -22 -60 -50z"/>
<path d="M4248 15107 c-16 -6 -28 -15 -28 -19 0 -5 15 -2 33 5 17 8 40 13 50
11 9 -1 17 2 17 7 0 12 -38 10 -72 -4z"/>
<path d="M4157 15061 c-46 -30 -45 -35 3 -11 53 26 58 30 39 29 -8 0 -26 -8
-42 -18z"/>
<path d="M3903 14948 c-14 -7 -43 -51 -74 -112 -45 -86 -52 -108 -50 -151 1
-27 -3 -90 -8 -139 -8 -66 -7 -94 1 -110 11 -19 13 -19 16 -3 4 19 4 19 26 11
9 -3 16 -12 16 -20 0 -7 -29 -71 -64 -141 -35 -70 -76 -157 -91 -193 -15 -36
-31 -69 -36 -75 -13 -13 -12 -155 2 -155 6 0 8 21 4 61 l-7 61 31 -21 c26 -18
31 -20 31 -7 0 9 -3 15 -7 14 -5 -1 -17 4 -29 11 -21 14 -21 15 45 160 76 168
79 173 92 166 5 -3 6 1 3 9 -5 14 -2 14 31 0 20 -8 39 -13 42 -11 2 3 -12 56
-33 118 -25 76 -33 114 -26 117 7 2 12 10 12 17 0 7 33 43 73 80 42 39 51 50
22 27 -27 -22 -66 -56 -84 -76 -19 -20 -37 -36 -41 -36 -5 0 -6 72 -2 108 1 6
10 12 20 12 9 1 31 7 47 15 17 8 21 13 10 11 -90 -19 -85 -20 -85 11 0 39 81
204 98 198 7 -3 10 0 7 5 -3 6 -1 10 6 10 7 0 9 3 5 7 -3 4 4 13 16 20 28 15
12 16 -19 1z m-103 -454 c0 -13 -4 -24 -10 -24 -5 0 -10 14 -10 31 0 17 4 28
10 24 6 -3 10 -17 10 -31z m58 -149 c16 -35 16 -35 -18 -24 -33 12 -32 11 -24
33 9 24 29 19 42 -9z"/>
<path d="M3900 14886 c0 -2 8 -10 18 -17 15 -13 16 -12 3 4 -13 16 -21 21 -21
13z"/>
<path d="M3940 14830 c6 -11 13 -20 16 -20 2 0 0 9 -6 20 -6 11 -13 20 -16 20
-2 0 0 -9 6 -20z"/>
<path d="M4368 14813 c6 -2 18 -2 25 0 6 3 1 5 -13 5 -14 0 -19 -2 -12 -5z"/>
<path d="M4508 14793 c6 -2 18 -2 25 0 6 3 1 5 -13 5 -14 0 -19 -2 -12 -5z"/>
<path d="M4658 14773 c7 -3 16 -2 19 1 4 3 -2 6 -13 5 -11 0 -14 -3 -6 -6z"/>
<path d="M4798 14753 c7 -3 16 -2 19 1 4 3 -2 6 -13 5 -11 0 -14 -3 -6 -6z"/>
<path d="M3990 14730 c-8 -5 -10 -10 -5 -10 6 0 17 5 25 10 8 5 11 10 5 10 -5
0 -17 -5 -25 -10z"/>
<path d="M4128 14633 c7 -3 16 -2 19 1 4 3 -2 6 -13 5 -11 0 -14 -3 -6 -6z"/>
<path d="M4248 14633 c6 -2 18 -2 25 0 6 3 1 5 -13 5 -14 0 -19 -2 -12 -5z"/>
<path d="M4388 14633 c6 -2 18 -2 25 0 6 3 1 5 -13 5 -14 0 -19 -2 -12 -5z"/>
<path d="M4538 14633 c7 -3 16 -2 19 1 4 3 -2 6 -13 5 -11 0 -14 -3 -6 -6z"/>
<path d="M4702 14310 c0 -14 2 -19 5 -12 2 6 2 18 0 25 -3 6 -5 1 -5 -13z"/>
<path d="M3862 14271 c7 -11 16 -17 21 -14 6 4 7 -10 3 -33 -5 -28 -4 -35 3
-24 6 8 11 23 11 33 0 9 5 17 10 17 6 0 1 9 -10 20 -27 27 -55 28 -38 1z"/>
<path d="M4070 14280 c-13 -8 -12 -10 3 -10 9 0 17 5 17 10 0 12 -1 12 -20 0z"/>
<path d="M4028 14273 c7 -3 16 -2 19 1 4 3 -2 6 -13 5 -11 0 -14 -3 -6 -6z"/>
<path d="M3837 14225 c-24 -50 -20 -58 4 -12 11 22 19 41 17 43 -3 2 -12 -12
-21 -31z"/>
<path d="M4141 14234 c0 -11 3 -14 6 -6 3 7 2 16 -1 19 -3 4 -6 -2 -5 -13z"/>
<path d="M4337 14201 c-2 -10 -1 -25 4 -32 6 -10 9 -4 9 19 0 36 -5 42 -13 13z"/>
<path d="M4701 14164 c0 -11 3 -14 6 -6 3 7 2 16 -1 19 -3 4 -6 -2 -5 -13z"/>
<path d="M3775 14119 c-9 -17 -15 -33 -13 -35 3 -2 12 12 21 31 21 43 13 47
-8 4z"/>
<path d="M3998 14133 c7 -3 16 -2 19 1 4 3 -2 6 -13 5 -11 0 -14 -3 -6 -6z"/>
<path d="M4132 14090 c0 -14 2 -19 5 -12 2 6 2 18 0 25 -3 6 -5 1 -5 -13z"/>
<path d="M4132 13990 c0 -14 2 -19 5 -12 2 6 2 18 0 25 -3 6 -5 1 -5 -13z"/>
<path d="M4858 13923 c7 -3 16 -2 19 1 4 3 -2 6 -13 5 -11 0 -14 -3 -6 -6z"/>
<path d="M4938 13923 c7 -3 16 -2 19 1 4 3 -2 6 -13 5 -11 0 -14 -3 -6 -6z"/>
<path d="M5040 13920 c0 -5 7 -7 15 -4 8 3 34 -10 60 -31 42 -35 45 -40 45
-88 0 -33 -7 -61 -22 -85 -20 -33 -22 -34 -36 -16 -13 18 -14 18 -7 -4 11 -36
-11 -52 -74 -53 -31 -1 -46 -4 -33 -6 35 -7 26 -23 -14 -23 -21 0 -33 -4 -29
-10 3 -5 24 -10 46 -10 28 0 38 4 33 11 -5 9 1 10 19 5 15 -3 60 -7 102 -7
130 -1 190 46 190 151 0 62 -16 95 -66 132 -45 34 -229 65 -229 38z"/>
<path d="M3683 13870 c0 -30 2 -43 4 -27 2 15 2 39 0 55 -2 15 -4 2 -4 -28z"/>
<path d="M4351 13844 c0 -11 3 -14 6 -6 3 7 2 16 -1 19 -3 4 -6 -2 -5 -13z"/>
<path d="M3911 13834 c0 -11 3 -14 6 -6 3 7 2 16 -1 19 -3 4 -6 -2 -5 -13z"/>
<path d="M3642 13800 c0 -19 2 -27 5 -17 2 9 2 25 0 35 -3 9 -5 1 -5 -18z"/>
<path d="M3683 13720 c0 -30 2 -43 4 -27 2 15 2 39 0 55 -2 15 -4 2 -4 -28z"/>
<path d="M4305 13740 c-3 -5 -2 -10 4 -10 5 0 13 5 16 10 3 6 2 10 -4 10 -5 0
-13 -4 -16 -10z"/>
<path d="M3638 13475 c-7 -299 -22 -439 -70 -642 l-32 -131 19 -41 c12 -27 21
-37 26 -30 4 7 0 24 -9 37 -16 25 -16 25 8 19 14 -4 37 -7 52 -7 23 0 28 -5
36 -42 l10 -43 1 38 c1 35 3 38 24 33 l22 -6 -22 11 c-15 8 -23 22 -24 38 0
14 -1 111 -2 215 0 178 1 190 19 197 18 7 18 8 -1 8 -19 1 -20 8 -19 148 1 82
-1 124 -3 96 -2 -29 -7 -53 -11 -53 -4 0 -6 69 -5 152 0 84 -2 180 -6 213 -5
41 -9 -26 -13 -210z m31 -227 c0 -7 -4 -22 -9 -33 -7 -17 -9 -15 -9 13 -1 17
4 32 9 32 6 0 10 -6 9 -12z m-22 -105 c-3 -10 -5 -4 -5 12 0 17 2 24 5 18 2
-7 2 -21 0 -30z m-11 -59 c-4 -14 -9 -24 -12 -21 -3 2 -2 17 2 31 3 15 9 25
11 22 3 -3 2 -17 -1 -32z m23 -16 c0 -24 0 -117 2 -208 1 -91 0 -164 -2 -164
-2 1 -28 5 -57 9 -41 5 -52 10 -48 22 9 22 77 281 88 336 6 26 12 47 15 47 2
0 3 -19 2 -42z"/>
<path d="M4142 13700 c0 -14 2 -19 5 -12 2 6 2 18 0 25 -3 6 -5 1 -5 -13z"/>
<path d="M4882 13643 c-10 -4 -8 -9 5 -19 17 -13 17 -13 -4 -14 -13 0 -23 -4
-23 -8 0 -5 13 -7 30 -4 27 4 28 6 18 26 -6 11 -11 22 -12 22 0 1 -7 -1 -14
-3z"/>
<path d="M4683 13607 c8 -18 17 -22 36 -19 24 5 24 5 4 13 -12 4 -24 12 -28
18 -12 21 -23 11 -12 -12z"/>
<path d="M4808 13623 c7 -3 16 -2 19 1 4 3 -2 6 -13 5 -11 0 -14 -3 -6 -6z"/>
<path d="M3971 13604 c0 -11 3 -14 6 -6 3 7 2 16 -1 19 -3 4 -6 -2 -5 -13z"/>
<path d="M3675 13547 c-4 -30 -5 -63 -3 -73 2 -11 8 12 12 49 4 38 5 71 3 74
-3 2 -8 -20 -12 -50z"/>
<path d="M4142 13570 c0 -19 2 -27 5 -17 2 9 2 25 0 35 -3 9 -5 1 -5 -18z"/>
<path d="M4603 13573 c-29 -9 -53 -19 -53 -24 0 -8 8 -7 45 7 11 4 26 8 34 10
7 1 18 7 24 13 13 13 15 13 -50 -6z"/>
<path d="M4180 13571 c0 -6 5 -13 10 -16 6 -3 10 1 10 9 0 9 -4 16 -10 16 -5
0 -10 -4 -10 -9z"/>
<path d="M4508 13564 c10 -18 5 -23 -45 -48 -30 -15 -53 -29 -50 -32 8 -8 97
18 91 27 -3 5 -1 9 4 9 19 0 23 33 6 49 -15 15 -15 14 -6 -5z"/>
<path d="M4878 13553 c7 -3 16 -2 19 1 4 3 -2 6 -13 5 -11 0 -14 -3 -6 -6z"/>
<path d="M4970 13545 c0 -8 2 -15 4 -15 2 0 6 7 10 15 3 8 1 15 -4 15 -6 0
-10 -7 -10 -15z"/>
<path d="M4695 13540 c-3 -5 -1 -10 4 -10 6 0 11 5 11 10 0 6 -2 10 -4 10 -3
0 -8 -4 -11 -10z"/>
<path d="M5040 13540 c0 -6 7 -10 15 -10 8 0 15 2 15 4 0 2 -7 6 -15 10 -8 3
-15 1 -15 -4z"/>
<path d="M3971 13461 c-1 -53 5 -66 12 -23 2 11 12 31 23 44 l19 23 -22 -18
c-21 -18 -21 -18 -26 5 -2 13 -5 -1 -6 -31z"/>
<path d="M4353 13493 c18 -20 17 -21 -12 -31 -17 -6 -31 -8 -31 -5 0 3 -9 -2
-20 -12 -11 -10 -20 -23 -20 -29 0 -6 4 -5 9 3 5 8 16 11 26 8 11 -5 14 -3 9
5 -5 8 -2 9 10 5 9 -4 15 -3 11 2 -3 5 11 15 30 21 19 6 35 16 35 22 0 6 -3 8
-7 5 -3 -4 -18 0 -32 10 -26 16 -26 16 -8 -4z"/>
<path d="M5098 13503 c7 -3 16 -2 19 1 4 3 -2 6 -13 5 -11 0 -14 -3 -6 -6z"/>
<path d="M4125 13430 c-4 -17 -5 -34 -2 -36 2 -3 7 10 11 27 8 42 0 50 -9 9z"/>
<path d="M4952 13448 c-1 -9 -8 -19 -14 -21 -10 -4 -10 -6 0 -6 6 -1 12 -5 12
-11 0 -5 -24 -10 -52 -10 -29 0 -84 -5 -123 -11 -38 -6 -83 -12 -100 -14 -53
-6 -159 -27 -204 -41 -25 -8 -51 -14 -59 -14 -25 0 -156 -62 -207 -98 -27 -20
-65 -56 -84 -81 l-33 -46 42 40 43 40 -23 -35 -24 -35 25 23 c14 12 31 22 39
22 7 0 10 3 7 7 -12 12 53 63 123 97 39 19 70 29 70 23 0 -6 6 -3 13 7 7 9 17
16 22 15 6 -1 22 3 38 9 15 6 53 16 85 21 31 5 72 13 90 17 30 6 32 5 32 -21
0 -16 3 -25 7 -21 4 4 8 17 8 28 0 28 29 35 171 46 75 6 111 5 116 -2 5 -7 8
-6 8 2 0 13 11 13 89 -5 15 -4 22 -2 18 5 -4 5 -34 13 -66 17 -58 7 -60 8 -64
38 -2 18 -5 25 -5 15z"/>
<path d="M4978 13423 c6 -2 18 -2 25 0 6 3 1 5 -13 5 -14 0 -19 -2 -12 -5z"/>
<path d="M4220 13411 c0 -5 -19 -23 -42 -40 -31 -23 -44 -28 -50 -18 -5 7 -8
2 -8 -16 0 -17 -4 -26 -10 -22 -6 4 -9 3 -8 -2 2 -4 -1 -9 -6 -10 -5 -1 -20
-21 -34 -45 -14 -24 -28 -45 -31 -48 -17 -14 -32 -40 -25 -40 5 0 20 17 34 38
21 31 150 165 150 155 0 -1 9 6 20 17 12 12 26 18 33 13 7 -4 7 0 -2 10 -15
19 -21 21 -21 8z"/>
<path d="M3963 13340 c0 -30 2 -43 4 -27 2 15 2 39 0 55 -2 15 -4 2 -4 -28z"/>
<path d="M5100 13366 c0 -2 7 -7 16 -10 8 -3 12 -2 9 4 -6 10 -25 14 -25 6z"/>
<path d="M4040 13346 c0 -2 8 -10 18 -17 15 -13 16 -12 3 4 -13 16 -21 21 -21
13z"/>
<path d="M4337 13337 c-3 -8 1 -14 9 -14 16 0 19 13 5 21 -5 3 -11 0 -14 -7z"/>
<path d="M4705 13320 c-3 -6 1 -7 9 -4 18 7 21 14 7 14 -6 0 -13 -4 -16 -10z"/>
<path d="M3952 13255 c0 -16 2 -22 5 -12 2 9 2 23 0 30 -3 6 -5 -1 -5 -18z"/>
<path d="M4090 13246 c0 -2 8 -10 18 -17 15 -13 16 -12 3 4 -13 16 -21 21 -21
13z"/>
<path d="M4668 13237 c-5 -10 -8 -42 -7 -70 0 -45 2 -48 10 -27 6 13 9 45 7
70 -2 31 -5 39 -10 27z"/>
<path d="M4377 13203 c-3 -10 -8 -49 -12 -88 -4 -38 -12 -76 -17 -82 -7 -9 -7
-13 0 -13 6 0 8 -33 6 -87 -3 -70 -1 -80 6 -48 5 22 9 64 9 93 1 42 4 52 18
52 16 0 16 1 0 13 -14 10 -15 22 -6 91 9 74 7 110 -4 69z"/>
<path d="M4225 13190 c-3 -5 -1 -10 4 -10 6 0 11 5 11 10 0 6 -2 10 -4 10 -3
0 -8 -4 -11 -10z"/>
<path d="M3927 13025 c-5 -49 -9 -115 -10 -145 -1 -30 -6 -58 -10 -61 -4 -3
-2 -18 4 -33 10 -21 10 -29 1 -35 -8 -5 -6 -10 6 -17 16 -10 17 -2 15 110 -1
76 2 115 7 106 7 -11 10 -6 10 18 0 18 5 32 13 33 6 1 1 5 -13 9 -15 5 -18 8
-9 9 9 1 20 8 23 17 4 11 2 15 -8 11 -11 -4 -16 4 -18 31 -2 22 -7 1 -11 -53z
m10 -47 c-3 -8 -6 -5 -6 6 -1 11 2 17 5 13 3 -3 4 -12 1 -19z"/>
<path d="M4116 13084 c-4 -9 -4 -19 -1 -22 2 -3 7 3 11 12 4 9 4 19 1 22 -2 3
-7 -3 -11 -12z"/>
<path d="M4150 13089 c0 -5 5 -7 10 -4 6 3 10 8 10 11 0 2 -4 4 -10 4 -5 0
-10 -5 -10 -11z"/>
<path d="M4705 13090 c-3 -6 1 -7 9 -4 18 7 21 14 7 14 -6 0 -13 -4 -16 -10z"/>
<path d="M3965 13080 c-3 -5 -1 -10 4 -10 6 0 11 5 11 10 0 6 -2 10 -4 10 -3
0 -8 -4 -11 -10z"/>
<path d="M4665 13080 c-3 -6 1 -7 9 -4 18 7 21 14 7 14 -6 0 -13 -4 -16 -10z"/>
<path d="M4585 13070 c-3 -6 1 -7 9 -4 18 7 21 14 7 14 -6 0 -13 -4 -16 -10z"/>
<path d="M4145 13059 c-4 -6 -5 -12 -2 -15 2 -3 7 2 10 11 7 17 1 20 -8 4z"/>
<path d="M4663 13025 c0 -22 2 -30 4 -17 2 12 2 30 0 40 -3 9 -5 -1 -4 -23z"/>
<path d="M4425 13040 c-3 -6 1 -7 9 -4 18 7 21 14 7 14 -6 0 -13 -4 -16 -10z"/>
<path d="M4220 13010 c-9 -6 -10 -10 -3 -10 6 0 15 5 18 10 8 12 4 12 -15 0z"/>
<path d="M4118 12980 c-4 -14 -8 -36 -7 -50 l0 -25 10 25 c5 13 9 36 7 50 l-3
25 -7 -25z"/>
<path d="M4041 12973 c0 -11 3 -13 6 -5 8 19 23 14 23 -9 0 -11 5 -17 10 -14
6 3 10 15 10 26 0 14 -7 19 -25 19 -17 0 -25 -5 -24 -17z"/>
<path d="M3802 12955 c0 -16 2 -22 5 -12 2 9 2 23 0 30 -3 6 -5 -1 -5 -18z"/>
<path d="M4660 12920 c0 -11 4 -20 9 -20 5 0 7 9 4 20 -3 11 -7 20 -9 20 -2 0
-4 -9 -4 -20z"/>
<path d="M4971 12904 c0 -11 3 -14 6 -6 3 7 2 16 -1 19 -3 4 -6 -2 -5 -13z"/>
<path d="M3991 12864 c0 -11 3 -14 6 -6 3 7 2 16 -1 19 -3 4 -6 -2 -5 -13z"/>
<path d="M4055 12867 c-4 -10 -5 -21 -1 -24 10 -10 18 4 13 24 -4 17 -4 17
-12 0z"/>
<path d="M4096 12828 c-3 -17 -2 -36 4 -42 7 -7 10 4 10 32 0 50 -5 54 -14 10z"/>
<path d="M4672 12840 c0 -14 2 -19 5 -12 2 6 2 18 0 25 -3 6 -5 1 -5 -13z"/>
<path d="M4349 12774 c-2 -69 1 -98 11 -108 8 -8 2 144 -6 153 -2 2 -4 -18 -5
-45z"/>
<path d="M4674 12789 c-3 -6 -1 -16 6 -22 10 -9 11 -9 5 2 -4 8 -2 17 6 22 9
6 10 9 2 9 -6 0 -15 -5 -19 -11z"/>
<path d="M4043 12728 c-5 -35 -7 -72 -4 -82 4 -19 4 -19 11 0 11 28 18 144 9
144 -4 0 -11 -28 -16 -62z"/>
<path d="M3792 12725 c0 -16 2 -22 5 -12 2 9 2 23 0 30 -3 6 -5 -1 -5 -18z"/>
<path d="M4013 12700 c0 -25 2 -35 4 -22 2 12 2 32 0 45 -2 12 -4 2 -4 -23z"/>
<path d="M3834 12718 c-5 -7 -3 -8 6 -3 9 6 12 4 8 -7 -4 -8 -2 -21 3 -29 6
-10 9 -4 9 19 0 32 -13 42 -26 20z"/>
<path d="M4305 12720 c-3 -6 1 -7 9 -4 18 7 21 14 7 14 -6 0 -13 -4 -16 -10z"/>
<path d="M3783 12632 c-36 -76 -73 -201 -73 -248 0 -49 11 -94 22 -88 5 3 9 0
7 -7 -1 -8 -1 -28 0 -46 1 -24 5 -31 19 -29 9 2 20 -4 24 -13 6 -15 7 -14 7 0
1 9 8 19 16 23 8 3 15 13 15 21 0 9 4 14 9 11 5 -3 12 31 17 77 4 45 8 84 9
87 2 14 20 34 48 50 l31 19 13 -27 c7 -15 11 -19 8 -9 -3 10 -5 30 -5 43 l0
25 -31 -23 c-30 -23 -31 -23 -46 -3 -15 20 -15 20 -8 -2 4 -17 2 -23 -8 -23
-18 0 -30 27 -15 36 7 4 7 9 0 13 -15 9 -31 138 -18 151 6 6 6 13 1 19 -6 6
-22 -16 -42 -57z m26 -96 c1 -38 -5 -57 -25 -83 -14 -18 -28 -49 -31 -68 -3
-19 -9 -32 -14 -29 -22 13 -2 143 34 229 20 45 22 47 28 25 4 -14 7 -47 8 -74z
m-5 -100 c-9 -15 -19 -25 -21 -22 -3 2 3 16 13 30 9 15 19 25 21 22 3 -2 -3
-16 -13 -30z"/>
<path d="M4680 12691 c0 -5 5 -13 10 -16 6 -3 10 -2 10 4 0 5 -4 13 -10 16 -5
3 -10 2 -10 -4z"/>
<path d="M3947 12683 c-11 -11 -8 -21 9 -27 13 -5 14 -4 6 7 -7 8 -9 17 -5 20
3 4 4 7 1 7 -2 0 -8 -3 -11 -7z"/>
<path d="M4080 12679 c-9 -5 -10 -9 -3 -9 6 0 13 -15 15 -32 l3 -33 6 38 c6
42 1 50 -21 36z"/>
<path d="M4362 12620 c0 -14 2 -19 5 -12 2 6 2 18 0 25 -3 6 -5 1 -5 -13z"/>
<path d="M3851 12604 c0 -11 3 -14 6 -6 3 7 2 16 -1 19 -3 4 -6 -2 -5 -13z"/>
<path d="M4041 12563 c1 -21 5 -51 9 -68 5 -22 7 -13 8 38 1 37 -3 67 -8 67
-6 0 -9 -17 -9 -37z"/>
<path d="M4092 12550 c0 -19 2 -27 5 -17 2 9 2 25 0 35 -3 9 -5 1 -5 -18z"/>
<path d="M4360 12561 c0 -5 5 -13 10 -16 6 -3 10 -2 10 4 0 5 -4 13 -10 16 -5
3 -10 2 -10 -4z"/>
<path d="M3662 12505 c0 -16 2 -22 5 -12 2 9 2 23 0 30 -3 6 -5 -1 -5 -18z"/>
<path d="M4371 12504 c0 -11 3 -14 6 -6 3 7 2 16 -1 19 -3 4 -6 -2 -5 -13z"/>
<path d="M4721 12515 c1 -19 18 -51 18 -35 0 8 -4 22 -9 30 -5 8 -9 11 -9 5z"/>
<path d="M3620 12495 c0 -5 5 -17 10 -25 5 -8 10 -10 10 -5 0 6 -5 17 -10 25
-5 8 -10 11 -10 5z"/>
<path d="M4374 12450 c3 -14 5 -31 5 -37 1 -7 6 -13 12 -13 5 0 8 4 4 9 -3 6
3 14 12 20 12 7 14 10 4 11 -8 0 -20 8 -27 18 -13 15 -13 15 -10 -8z"/>
<path d="M3644 12448 c-4 -6 -3 -8 3 -5 6 4 10 -7 11 -24 1 -48 12 -48 12 -1
0 41 -11 54 -26 30z"/>
<path d="M4055 12431 c5 -23 2 -30 -12 -34 -10 -3 3 -5 30 -4 47 1 69 17 22
17 -20 0 -25 5 -25 25 0 14 -5 25 -11 25 -7 0 -8 -11 -4 -29z"/>
<path d="M4100 12445 c0 -8 4 -15 10 -15 5 0 7 7 4 15 -4 8 -8 15 -10 15 -2 0
-4 -7 -4 -15z"/>
<path d="M3950 12420 c0 -5 5 -10 11 -10 5 0 7 5 4 10 -3 6 -8 10 -11 10 -2 0
-4 -4 -4 -10z"/>
<path d="M4296 12421 c-4 -5 3 -7 14 -4 23 6 26 13 6 13 -8 0 -17 -4 -20 -9z"/>
<path d="M3954 12374 c3 -9 6 -28 7 -42 0 -15 3 -21 6 -14 4 10 8 9 19 -5 10
-14 10 -7 -2 30 -9 26 -20 47 -26 47 -6 0 -7 -7 -4 -16z"/>
<path d="M4070 12366 c0 -8 4 -17 9 -20 5 -4 7 3 4 14 -6 23 -13 26 -13 6z"/>
<path d="M4391 12364 c0 -11 3 -14 6 -6 3 7 2 16 -1 19 -3 4 -6 -2 -5 -13z"/>
<path d="M7463 12315 c0 -22 2 -30 4 -17 2 12 2 30 0 40 -3 9 -5 -1 -4 -23z"/>
<path d="M4132 12309 c6 -16 12 -29 13 -27 6 6 -8 58 -16 58 -4 0 -3 -14 3
-31z"/>
<path d="M4087 12310 c7 -25 23 -37 23 -17 0 8 -6 20 -14 26 -12 10 -13 8 -9
-9z"/>
<path d="M4396 12317 c3 -10 9 -15 12 -12 3 3 0 11 -7 18 -10 9 -11 8 -5 -6z"/>
<path d="M3971 12279 c-1 -16 -60 -49 -86 -49 -8 0 -15 -4 -15 -10 0 -14 5
-13 51 11 l41 20 -7 -22 c-5 -14 -4 -19 4 -15 6 4 11 0 11 -10 0 -11 3 -14 9
-8 5 5 5 29 1 54 -4 25 -8 38 -9 29z"/>
<path d="M3990 12277 c0 -7 15 -31 33 -53 18 -21 40 -51 49 -65 20 -31 157
-104 212 -112 22 -4 43 -12 48 -19 5 -9 8 -9 8 -1 0 6 8 14 18 16 9 3 0 5 -20
6 -20 0 -40 6 -43 11 -3 6 -17 10 -30 10 -13 0 -57 18 -98 40 -56 31 -85 54
-116 95 -23 30 -41 59 -41 64 0 5 -4 13 -10 16 -5 3 -10 0 -10 -8z"/>
<path d="M4143 12256 c-6 -8 -9 -16 -6 -20 3 -3 0 -12 -7 -21 -10 -13 -9 -15
8 -15 11 0 41 -9 67 -20 26 -11 55 -20 66 -20 10 0 19 -4 19 -10 0 -5 15 -9
33 -9 17 1 24 3 14 6 -9 2 -15 9 -12 14 4 5 -14 9 -39 9 -25 0 -46 3 -46 8 0
4 -14 13 -30 20 -17 8 -27 18 -24 24 3 5 -3 12 -14 15 -13 3 -18 11 -15 19 6
17 2 17 -14 0z"/>
<path d="M3693 12205 c-7 -43 -7 -55 3 -55 13 0 30 -57 21 -67 -3 -3 -44 16
-91 42 -47 26 -94 44 -103 42 -16 -4 -16 -5 1 -6 10 0 60 -24 110 -52 76 -42
94 -57 109 -89 10 -22 16 -44 12 -50 -4 -6 1 -7 11 -3 11 4 15 3 10 -5 -3 -6
-2 -13 3 -16 10 -7 9 13 -1 30 -12 19 -21 164 -11 164 12 0 19 -38 29 -153 4
-43 11 -80 15 -83 5 -3 9 3 9 13 0 21 25 61 33 53 3 -3 8 -30 11 -60 10 -102
27 -224 33 -233 3 -5 -3 -7 -12 -5 -10 1 -24 19 -32 38 l-13 35 6 -32 c7 -42
-17 -45 -36 -5 -42 90 -57 140 -47 158 9 17 9 17 -6 5 -15 -12 -24 -7 -77 39
-36 31 -57 57 -53 63 5 9 3 9 -8 0 -11 -8 -23 -8 -54 3 -52 19 -156 27 -186
15 -13 -5 -36 -21 -52 -36 -15 -14 -32 -23 -39 -19 -6 4 -9 3 -6 -2 6 -10 20
-124 22 -185 2 -37 47 -119 67 -119 5 0 -1 15 -14 33 -24 31 -34 70 -43 171
-3 27 -7 53 -10 58 -13 21 71 79 106 72 18 -4 21 -3 11 4 -9 6 2 9 35 7 83 -4
85 -5 80 -14 -3 -4 5 -6 17 -4 13 3 37 -6 57 -19 31 -21 35 -29 38 -72 2 -37
0 -46 -10 -40 -10 6 -10 4 1 -9 17 -22 16 -22 19 14 1 18 6 38 10 45 12 22 56
-26 91 -101 35 -74 37 -83 16 -65 -11 9 -15 9 -15 1 0 -6 11 -17 25 -23 14 -6
25 -17 25 -23 0 -7 9 -10 23 -8 21 4 22 2 19 -74 -3 -106 -3 -108 6 -190 4
-40 4 -73 1 -73 -4 0 -14 17 -22 38 -9 20 -16 31 -16 23 -1 -16 15 -69 35
-121 12 -29 12 -32 1 -18 -8 10 -18 14 -22 10 -5 -4 -5 -1 0 7 6 10 4 12 -4 6
-14 -8 -91 23 -91 37 0 4 -6 8 -14 8 -8 0 -22 10 -32 23 -11 15 -15 16 -11 5
8 -24 2 -23 -68 15 -57 30 -60 34 -57 66 2 19 0 31 -6 27 -10 -6 -122 97 -122
114 0 5 -4 10 -10 10 -5 0 -10 5 -10 11 0 14 -29 43 -36 36 -10 -10 30 -61
104 -133 39 -39 72 -74 72 -77 0 -18 -25 0 -98 71 -57 54 -95 103 -130 164
-32 55 -44 84 -33 80 10 -4 6 6 -11 27 -26 30 -28 38 -28 128 0 85 2 94 16 83
13 -12 14 -10 3 13 -10 23 -8 30 31 76 24 28 49 51 57 51 8 0 24 9 36 20 12
11 27 18 34 16 7 -3 13 -1 13 4 0 6 -4 10 -9 10 -21 0 -100 -53 -141 -95 l-45
-46 -6 -117 -6 -117 56 -104 c59 -111 154 -223 240 -284 25 -19 98 -58 161
-87 63 -30 127 -62 142 -72 14 -10 31 -18 37 -18 15 0 58 -49 153 -178 97
-130 82 -104 196 -347 89 -192 138 -270 263 -420 86 -103 192 -245 252 -337
76 -117 194 -241 259 -273 l33 -17 -32 28 c-26 24 -32 38 -36 82 -2 28 -1 52
2 52 16 -1 147 -93 153 -108 14 -35 10 -43 -14 -32 -22 11 -22 10 -4 -4 10 -9
22 -13 26 -11 10 6 30 -41 30 -68 0 -16 10 -27 35 -39 19 -8 35 -14 35 -13 0
2 -13 17 -30 33 -34 34 -40 65 -12 56 14 -5 14 -3 -2 10 -11 9 -23 16 -27 16
-8 0 -24 39 -22 55 1 6 -38 36 -88 69 -64 42 -88 63 -85 75 3 9 7 59 10 111 3
71 2 82 -4 45 -4 -27 -9 -73 -9 -102 -1 -28 -4 -54 -8 -56 -5 -3 -49 34 -100
82 l-92 86 12 96 13 96 -163 169 c-136 140 -163 173 -164 199 0 29 -1 29 -10
7 -5 -13 -6 -28 -3 -33 3 -6 7 -20 9 -32 7 -54 26 -158 31 -174 4 -10 -55 96
-130 235 l-136 254 22 19 c13 10 26 18 29 19 4 0 41 -68 84 -151 42 -83 79
-148 82 -145 3 2 -29 70 -71 151 -42 80 -76 150 -76 154 0 15 43 21 59 8 12
-10 13 -9 6 2 -5 9 -2 19 11 29 18 14 18 14 -3 8 -16 -5 -23 -2 -26 11 -4 14
-5 14 -6 -4 -1 -20 -36 -42 -48 -30 -2 3 -7 33 -10 67 -3 34 -9 57 -13 53 -5
-4 -3 -37 3 -72 10 -61 9 -64 -14 -82 l-24 -18 -7 37 c-4 20 -7 97 -7 171 -1
74 -4 131 -8 127 -4 -4 -6 -80 -5 -169 l3 -162 -30 29 c-17 17 -31 40 -31 52
0 12 -6 52 -14 90 -23 110 -46 233 -46 249 0 10 12 15 38 16 l37 2 -35 6 c-33
6 -35 8 -32 41 1 19 7 39 12 44 6 6 10 17 10 26 -1 20 -29 -29 -30 -51 0 -9
-6 -22 -14 -28 -12 -10 -14 -9 -9 7 2 10 -3 47 -12 83 -10 35 -19 73 -21 84
-10 53 -43 168 -43 151 -1 -11 6 -45 14 -75 26 -103 55 -244 51 -249 -3 -2
-23 10 -45 27 -36 29 -40 37 -51 104 -6 39 -16 91 -21 114 -13 61 -11 100 8
136 l16 32 13 -35 c7 -19 13 -30 13 -23 1 6 -4 24 -9 39 -9 23 -6 37 21 87 17
32 29 60 27 63 -3 2 -13 -15 -24 -38 -17 -39 -19 -40 -25 -17 -7 23 -7 22 -8
-5 -1 -16 -3 -27 -6 -24 -3 3 -23 52 -45 109 -29 78 -36 106 -28 116 8 10 8
17 0 25 -15 15 -16 94 -2 103 27 17 2 25 -81 25 l-91 0 7 50 c9 67 1 64 -12
-5z m44 -87 c-3 -8 -6 -5 -6 6 -1 11 2 17 5 13 3 -3 4 -12 1 -19z m107 -35
c11 -72 8 -105 -11 -101 -19 3 -31 51 -32 121 -1 34 1 37 18 28 10 -6 21 -26
25 -48z m87 -305 c8 -20 6 -34 -6 -58 -9 -18 -18 -30 -20 -28 -5 5 -13 65 -20
153 l-6 70 21 -55 c12 -30 26 -67 31 -82z m-29 -164 c3 -21 9 -61 13 -89 4
-27 10 -67 15 -87 9 -44 5 -46 -31 -14 -24 21 -27 31 -29 107 -2 46 -2 95 -2
107 3 37 26 20 34 -24z m41 -321 c4 -48 5 -88 3 -90 -2 -2 -11 0 -20 3 -13 5
-14 9 -6 14 8 5 10 19 5 39 -7 33 -24 42 -26 14 -1 -10 -5 12 -9 49 -5 37 -11
77 -15 89 -7 21 -6 21 27 -5 34 -25 35 -28 41 -113z m68 25 c32 -25 38 -36 48
-95 21 -125 30 -178 36 -218 l6 -40 -36 58 c-19 32 -35 60 -35 62 0 3 -13 26
-29 52 -20 34 -30 67 -35 113 -3 36 -9 76 -12 89 -8 28 -2 25 57 -21z m-56
-156 c-3 -3 -11 0 -18 7 -9 10 -8 11 6 5 10 -3 15 -9 12 -12z m36 -50 c28 -43
18 -41 -16 4 -16 20 -23 35 -16 33 7 -3 21 -19 32 -37z m269 -427 c34 -66 67
-126 72 -132 7 -9 7 -13 0 -13 -6 0 -14 9 -17 20 -4 11 -10 18 -14 16 -7 -4
-22 23 -101 184 -65 132 -13 67 60 -75z m106 -203 c14 -24 27 -50 28 -57 1 -7
8 -21 16 -31 8 -11 3 -8 -12 5 -15 13 -25 28 -21 34 3 5 -7 20 -23 34 -16 13
-23 22 -16 18 14 -7 15 -4 6 20 -5 12 -9 13 -14 5 -5 -8 -9 -8 -13 2 -3 9 1
15 9 15 8 0 26 -20 40 -45z m394 -317 c-1 -22 -6 -64 -13 -94 l-13 -54 -112
119 c-66 70 -112 127 -112 139 0 11 -8 52 -19 90 -42 156 -48 157 119 -10 144
-144 150 -151 150 -190z m-11 -215 c5 -16 8 -30 6 -30 -2 0 -10 14 -19 30 -8
17 -11 30 -6 30 4 0 13 -13 19 -30z m135 -86 c55 -48 56 -50 56 -104 l0 -54
-56 54 c-64 64 -88 95 -99 130 -6 22 -1 19 41 -20 l48 -45 -39 45 c-21 25 -45
51 -52 58 -7 7 -13 18 -13 24 0 10 17 -3 114 -88z"/>
<path d="M4411 12234 c0 -11 3 -14 6 -6 3 7 2 16 -1 19 -3 4 -6 -2 -5 -13z"/>
<path d="M4273 12193 c9 -2 23 -2 30 0 6 3 -1 5 -18 5 -16 0 -22 -2 -12 -5z"/>
<path d="M4420 12173 c0 -7 -12 -14 -27 -14 l-28 -1 30 -8 c17 -4 22 -8 12 -9
-10 0 -15 -5 -12 -11 10 -16 45 -11 73 11 l27 21 -27 -7 c-19 -5 -29 -2 -37
12 -6 10 -11 12 -11 6z"/>
<path d="M4650 12160 l-55 -7 50 0 c28 0 64 3 80 7 26 7 27 8 5 7 -14 0 -50
-3 -80 -7z"/>
<path d="M3468 12153 c6 -2 18 -2 25 0 6 3 1 5 -13 5 -14 0 -19 -2 -12 -5z"/>
<path d="M4812 12146 c7 -8 16 -12 21 -9 11 7 -2 23 -19 23 -12 0 -12 -2 -2
-14z"/>
<path d="M4523 12143 c9 -2 23 -2 30 0 6 3 -1 5 -18 5 -16 0 -22 -2 -12 -5z"/>
<path d="M3910 12129 c0 -5 5 -7 10 -4 6 3 10 8 10 11 0 2 -4 4 -10 4 -5 0
-10 -5 -10 -11z"/>
<path d="M5142 12115 c0 -16 2 -22 5 -12 2 9 2 23 0 30 -3 6 -5 -1 -5 -18z"/>
<path d="M3955 12020 c-4 -61 -5 -113 -2 -116 2 -3 8 45 12 106 4 61 5 113 2
116 -2 3 -8 -45 -12 -106z"/>
<path d="M4523 12123 c9 -2 23 -2 30 0 6 3 -1 5 -18 5 -16 0 -22 -2 -12 -5z"/>
<path d="M4578 12123 c7 -3 16 -2 19 1 4 3 -2 6 -13 5 -11 0 -14 -3 -6 -6z"/>
<path d="M3891 12079 c-6 -18 -9 -34 -7 -36 2 -2 9 10 15 28 6 18 9 34 7 36
-2 2 -9 -10 -15 -28z"/>
<path d="M4508 12103 c6 -2 18 -2 25 0 6 3 1 5 -13 5 -14 0 -19 -2 -12 -5z"/>
<path d="M4917 12083 c-45 -20 -60 -24 -66 -14 -6 10 -10 9 -14 -3 -10 -25 30
-20 98 13 75 37 60 40 -18 4z"/>
<path d="M4393 12045 c-11 -25 -11 -25 40 -24 46 1 48 2 18 8 -19 3 -37 14
-40 23 -5 14 -8 13 -18 -7z"/>
<path d="M4770 12050 c8 -5 24 -10 34 -10 26 0 18 6 -19 14 -22 5 -26 4 -15
-4z"/>
<path d="M4715 12040 c-15 -6 -10 -8 18 -8 20 0 37 1 37 3 0 8 -38 11 -55 5z"/>
<path d="M4520 12031 c14 -4 50 -11 80 -14 l55 -6 -50 14 c-27 8 -63 14 -80
14 -29 -1 -29 -1 -5 -8z"/>
<path d="M7895 12030 c3 -5 8 -10 11 -10 2 0 4 5 4 10 0 6 -5 10 -11 10 -5 0
-7 -4 -4 -10z"/>
<path d="M4668 12023 c7 -3 16 -2 19 1 4 3 -2 6 -13 5 -11 0 -14 -3 -6 -6z"/>
<path d="M6955 12019 c-4 -6 -5 -13 -2 -16 7 -7 27 6 27 18 0 12 -17 12 -25
-2z"/>
<path d="M4135 12000 c-3 -6 1 -7 9 -4 18 7 21 14 7 14 -6 0 -13 -4 -16 -10z"/>
<path d="M5131 11913 c1 -57 3 -70 9 -48 11 45 11 113 0 120 -6 4 -10 -22 -9
-72z"/>
<path d="M4050 11940 c-6 -11 -8 -20 -6 -20 3 0 10 9 16 20 6 11 8 20 6 20 -3
0 -10 -9 -16 -20z"/>
<path d="M3495 11940 c-16 -7 -17 -9 -3 -9 9 -1 20 4 23 9 7 11 7 11 -20 0z"/>
<path d="M3370 11890 c-9 -6 -10 -10 -3 -10 6 0 15 5 18 10 8 12 4 12 -15 0z"/>
<path d="M3821 11834 c0 -11 3 -14 6 -6 3 7 2 16 -1 19 -3 4 -6 -2 -5 -13z"/>
<path d="M5127 11777 c-10 -27 -9 -127 2 -127 11 0 18 76 11 116 -5 24 -7 26
-13 11z"/>
<path d="M3724 11729 c-4 -7 -3 -9 4 -5 5 3 13 0 15 -6 4 -9 6 -10 6 -1 1 17
-16 25 -25 12z"/>
<path d="M4289 11693 c-13 -16 -12 -17 4 -4 9 7 17 15 17 17 0 8 -8 3 -21 -13z"/>
<path d="M3500 11693 c0 -5 6 -10 13 -10 7 0 43 -17 80 -37 63 -35 67 -40 68
-74 2 -31 3 -32 6 -9 5 33 11 33 74 1 28 -14 53 -23 55 -21 4 3 -73 49 -157
92 -11 6 -19 20 -19 35 -1 22 -2 23 -11 8 -9 -17 -13 -17 -47 -2 -20 9 -43 18
-49 21 -7 3 -13 1 -13 -4z"/>
<path d="M4101 11684 c0 -11 3 -14 6 -6 3 7 2 16 -1 19 -3 4 -6 -2 -5 -13z"/>
<path d="M3812 11600 c0 -19 2 -27 5 -17 2 9 2 25 0 35 -3 9 -5 1 -5 -18z"/>
<path d="M4415 11590 c3 -6 -2 -10 -12 -11 -14 0 -15 -2 -3 -6 8 -3 18 -10 21
-15 3 -5 9 -1 12 11 3 12 -1 22 -10 25 -8 3 -11 1 -8 -4z"/>
<path d="M5120 11551 c0 -27 5 -53 10 -56 6 -4 10 13 10 44 0 27 -4 53 -10 56
-6 4 -10 -13 -10 -44z"/>
<path d="M4121 11574 c0 -11 3 -14 6 -6 3 7 2 16 -1 19 -3 4 -6 -2 -5 -13z"/>
<path d="M8506 11493 c3 -49 7 -104 9 -123 12 -130 15 -270 6 -270 -6 0 -8 -7
-5 -15 4 -8 16 -15 29 -15 41 0 46 -20 51 -197 3 -92 6 -199 7 -238 1 -46 -2
-75 -11 -84 -10 -11 -10 -16 5 -27 10 -7 25 -14 33 -14 39 -1 43 -15 46 -157
3 -142 4 -153 23 -238 6 -27 13 -63 16 -80 10 -63 15 -79 46 -145 17 -38 42
-78 54 -90 l23 -22 11 52 c14 63 14 115 1 160 -6 19 -19 109 -30 200 -11 91
-23 185 -26 210 -3 25 -18 104 -34 175 -16 72 -43 216 -59 320 -57 355 -91
500 -147 622 -42 91 -56 84 -48 -24z"/>
<path d="M4155 11550 c-4 -6 -11 -8 -16 -5 -5 4 -9 -9 -8 -27 0 -30 1 -31 9
-10 5 12 17 22 27 23 11 0 13 3 5 6 -6 2 -10 9 -6 14 3 5 3 9 0 9 -3 0 -8 -5
-11 -10z"/>
<path d="M3810 11534 c0 -5 7 -19 15 -30 8 -10 15 -14 15 -8 0 5 -7 19 -15 30
-8 10 -15 14 -15 8z"/>
<path d="M4310 11440 c-12 -16 -19 -30 -16 -30 2 0 14 14 26 30 12 17 19 30
16 30 -2 0 -14 -13 -26 -30z"/>
<path d="M3661 11438 c0 -17 -8 -29 -21 -33 -11 -3 -20 -10 -20 -15 0 -11 43
-18 65 -10 17 6 17 8 3 16 -9 5 -18 23 -21 39 -4 29 -4 29 -6 3z"/>
<path d="M5117 11446 c-3 -8 1 -17 9 -20 9 -4 14 1 14 14 0 23 -15 27 -23 6z"/>
<path d="M4101 11434 c0 -11 3 -14 6 -6 3 7 2 16 -1 19 -3 4 -6 -2 -5 -13z"/>
<path d="M4151 11434 c0 -11 3 -14 6 -6 3 7 2 16 -1 19 -3 4 -6 -2 -5 -13z"/>
<path d="M3804 11428 c6 -19 -9 -25 -19 -8 -3 6 -11 10 -17 10 -7 0 -6 -6 2
-15 13 -15 50 -21 50 -7 0 4 -5 14 -11 22 -9 13 -10 12 -5 -2z"/>
<path d="M3575 11411 c-10 -17 12 -21 25 -6 10 12 10 15 -3 15 -9 0 -18 -4
-22 -9z"/>
<path d="M3740 11405 c7 -8 17 -15 22 -15 6 0 5 7 -2 15 -7 8 -17 15 -22 15
-6 0 -5 -7 2 -15z"/>
<path d="M3712 11394 c10 -10 20 -15 24 -12 3 4 -5 12 -18 18 -22 12 -22 12
-6 -6z"/>
<path d="M5130 11396 c0 -9 5 -16 10 -16 6 0 10 4 10 9 0 6 -4 13 -10 16 -5 3
-10 -1 -10 -9z"/>
<path d="M5135 11360 c3 -5 8 -10 11 -10 2 0 4 5 4 10 0 6 -5 10 -11 10 -5 0
-7 -4 -4 -10z"/>
<path d="M6685 11340 c3 -5 8 -10 11 -10 2 0 4 5 4 10 0 6 -5 10 -11 10 -5 0
-7 -4 -4 -10z"/>
<path d="M4175 11305 c2 -22 5 -42 5 -45 1 -3 2 -21 2 -40 -1 -29 0 -31 6 -11
7 22 8 22 25 -13 9 -20 18 -53 18 -74 1 -20 5 -50 10 -67 5 -20 6 -11 2 27 -5
54 -4 58 18 67 24 10 24 10 2 10 -16 1 -29 13 -43 41 -29 56 -26 70 13 71 30
2 30 2 5 6 -32 5 -34 10 -12 43 12 20 10 19 -9 -4 l-25 -28 -10 28 c-10 27
-10 27 -7 -11z"/>
<path d="M5140 11331 c0 -5 5 -13 10 -16 6 -3 10 -2 10 4 0 5 -4 13 -10 16 -5
3 -10 2 -10 -4z"/>
<path d="M4508 11293 c7 -3 16 -2 19 1 4 3 -2 6 -13 5 -11 0 -14 -3 -6 -6z"/>
<path d="M5150 11290 c0 -5 5 -10 11 -10 5 0 7 5 4 10 -3 6 -8 10 -11 10 -2 0
-4 -4 -4 -10z"/>
<path d="M4288 11283 c7 -3 16 -2 19 1 4 3 -2 6 -13 5 -11 0 -14 -3 -6 -6z"/>
<path d="M4368 11283 c7 -3 16 -2 19 1 4 3 -2 6 -13 5 -11 0 -14 -3 -6 -6z"/>
<path d="M5156 11262 c-3 -6 -1 -14 5 -17 14 -9 20 -2 10 14 -6 8 -11 9 -15 3z"/>
<path d="M6630 11266 c0 -2 7 -7 16 -10 8 -3 12 -2 9 4 -6 10 -25 14 -25 6z"/>
<path d="M10513 11212 c-2 -54 -44 -225 -68 -275 -8 -18 -33 -53 -54 -77 -38
-44 -46 -47 -123 -49 -16 -1 -28 -5 -28 -11 0 -10 78 -52 120 -65 24 -7 90
-35 99 -42 2 -1 -7 -20 -21 -40 -14 -21 -28 -47 -32 -58 -15 -50 -73 -150 -96
-167 -15 -11 -50 -21 -85 -24 -33 -3 -62 -7 -64 -9 -14 -15 19 -37 91 -60 145
-46 141 -40 86 -155 -19 -41 -49 -106 -66 -143 -22 -48 -35 -66 -44 -61 -7 4
-10 3 -5 -1 4 -5 1 -15 -7 -24 -8 -9 -15 -20 -15 -26 -1 -5 -5 -10 -9 -10 -14
0 -41 -32 -34 -40 4 -5 -1 -5 -12 -1 -14 5 -17 2 -12 -9 3 -8 2 -15 -2 -16 -4
0 -15 -2 -25 -4 -9 -2 -15 0 -12 5 3 4 -2 11 -11 14 -22 8 -24 8 -18 -7 3 -8
-2 -14 -10 -14 -8 0 -13 4 -10 9 3 4 0 8 -7 8 -9 0 -10 28 -5 111 3 61 9 116
13 122 4 7 -1 6 -10 -2 -9 -7 -17 -21 -17 -29 0 -18 -39 -127 -73 -205 -28
-64 -39 -72 -74 -53 -54 30 -61 41 -68 99 -8 78 -23 111 -65 144 -13 10 -15
-2 -16 -95 0 -71 -10 -154 -28 -247 -14 -77 -37 -215 -51 -306 -26 -180 -53
-269 -93 -306 -22 -21 -130 -59 -159 -57 -7 1 -22 2 -34 3 -14 1 -26 15 -41
48 -18 41 -20 58 -14 137 4 50 11 109 16 131 24 104 72 509 63 524 -5 9 -11
47 -12 85 -2 76 -18 123 -50 155 -36 36 -46 27 -47 -47 -1 -37 -18 -141 -38
-232 -20 -91 -39 -182 -41 -203 -3 -21 -14 -84 -25 -140 -11 -56 -24 -133 -30
-171 -13 -85 -51 -161 -93 -186 -34 -21 -94 -33 -170 -34 -39 -1 -49 -5 -52
-21 -9 -40 -9 -60 -3 -71 4 -5 -6 -26 -23 -45 -16 -19 -32 -42 -35 -52 -3 -9
-10 -15 -15 -12 -5 4 -9 -1 -9 -10 0 -9 5 -13 10 -10 9 6 15 -18 10 -40 -2 -5
-2 -18 -2 -27 0 -10 -6 -18 -13 -18 -9 0 -12 -6 -9 -15 4 -8 1 -15 -6 -15 -7
0 -6 -6 4 -16 21 -20 20 -23 -4 -17 -20 5 -21 -8 -4 -51 6 -15 4 -18 -8 -14
-20 8 -19 -32 2 -50 8 -8 9 -11 3 -7 -7 3 -13 1 -13 -5 0 -6 -4 -8 -10 -5 -9
5 -14 -7 -12 -26 1 -4 -8 -5 -18 -2 -16 4 -19 2 -14 -11 3 -9 12 -16 20 -16 8
0 14 -4 14 -10 0 -11 -13 -13 -24 -3 -3 4 -14 7 -24 8 -17 1 -20 -8 -24 -82 0
-18 -5 -33 -10 -33 -5 0 -4 -9 1 -19 9 -16 8 -18 -10 -14 -14 4 -25 0 -31 -11
-8 -14 -12 -15 -26 -4 -14 11 -15 10 -9 -6 6 -16 5 -17 -8 -6 -12 10 -15 10
-15 -4 0 -9 -7 -16 -15 -16 -8 0 -15 -5 -15 -11 0 -5 4 -8 10 -4 5 3 18 -3 30
-15 11 -11 15 -20 9 -20 -5 0 -7 -6 -3 -12 4 -7 -2 -5 -13 5 -22 19 -43 23
-43 7 0 -5 8 -10 18 -11 13 0 11 -3 -6 -10 -19 -7 -22 -14 -18 -39 3 -21 0
-30 -10 -30 -13 0 -18 -11 -15 -36 1 -7 -6 -15 -15 -18 -13 -5 -14 -4 -6 7 14
17 3 31 -13 17 -7 -6 -20 -4 -37 4 -15 8 -29 12 -31 10 -3 -3 -14 7 -26 22
-11 15 -21 22 -21 17 0 -6 14 -24 30 -41 17 -18 30 -39 30 -47 0 -8 5 -14 12
-12 7 1 17 -8 23 -21 5 -12 16 -20 23 -17 7 2 15 -2 19 -11 3 -8 11 -13 19
-10 7 3 14 1 16 -5 2 -5 17 -12 33 -14 17 -3 41 -8 55 -12 26 -6 114 -7 140
-1 8 1 34 15 57 30 24 16 48 25 58 22 9 -4 24 3 39 19 13 14 26 23 29 20 8 -7
84 49 85 62 1 6 12 12 24 13 13 2 28 8 33 14 7 8 5 8 -5 3 -8 -4 -5 2 8 14 12
12 22 27 22 33 0 6 3 9 6 5 8 -8 34 18 34 33 0 6 7 13 15 16 8 4 15 14 15 23
0 9 8 27 17 41 12 17 13 25 5 28 -8 2 -8 8 3 18 8 8 17 31 21 52 4 20 12 44
18 52 7 8 12 27 11 42 0 15 3 24 7 22 13 -8 9 11 -4 25 -11 10 -10 12 2 9 8
-2 14 3 12 11 -1 7 5 19 15 27 15 11 15 13 2 14 -21 0 -17 49 7 86 11 15 15
25 9 22 -5 -3 -16 0 -23 8 -11 12 -8 14 20 9 31 -6 32 -5 13 9 -12 9 -15 15
-7 16 7 0 10 5 6 12 -4 6 -3 8 4 4 6 -3 13 2 17 13 8 26 55 35 55 10 0 -13 5
-16 16 -12 10 4 17 -1 21 -16 6 -22 53 -31 53 -10 0 6 -7 8 -17 4 -15 -5 -16
-4 -5 7 11 11 15 10 25 -2 14 -17 29 -20 114 -22 36 0 60 -4 57 -10 -8 -12 40
-55 55 -50 10 3 10 0 2 -17 -10 -17 -9 -20 4 -15 8 4 15 11 15 17 0 6 3 7 6 4
4 -4 1 -13 -6 -22 -7 -9 -10 -18 -6 -22 3 -3 6 -1 6 5 0 7 7 12 15 12 13 0 21
-25 16 -52 0 -5 5 -8 11 -8 9 0 8 -4 -2 -11 -13 -9 -13 -10 0 -6 8 2 15 9 15
15 0 5 4 14 9 19 5 5 6 3 2 -4 -5 -9 0 -13 16 -14 17 -1 18 -3 6 -6 -10 -2
-18 -8 -18 -13 0 -5 7 -7 16 -3 12 4 15 2 12 -8 -3 -8 6 -22 20 -33 15 -12 22
-26 19 -37 -3 -11 -2 -19 2 -19 4 0 13 -12 20 -26 11 -25 10 -26 -9 -21 -16 4
-20 2 -16 -10 3 -8 6 -24 7 -36 0 -21 1 -21 9 -2 8 19 9 19 9 -2 1 -13 -3 -23
-9 -23 -5 0 -7 -7 -4 -15 4 -8 0 -23 -7 -32 -11 -13 -11 -17 -2 -20 10 -4 9
-9 -3 -20 -10 -10 -13 -25 -9 -40 4 -18 2 -23 -6 -17 -7 4 -9 3 -5 -4 3 -6 -2
-36 -13 -66 -10 -30 -16 -57 -13 -60 3 -3 0 -6 -6 -6 -7 0 -12 -10 -12 -22 0
-33 -24 -105 -53 -163 -14 -27 -23 -53 -21 -57 3 -4 2 -14 -3 -20 -4 -7 -9
-22 -10 -33 -2 -10 -8 -22 -14 -26 -6 -3 -10 -9 -10 -13 1 -7 -2 -16 -24 -81
-9 -27 -19 -60 -22 -73 -3 -12 -18 -36 -34 -53 -15 -16 -27 -33 -27 -36 1 -3
-7 -15 -18 -27 -10 -12 -30 -43 -44 -69 -14 -27 -32 -56 -40 -65 -22 -25 -80
-117 -80 -128 0 -5 -13 -15 -29 -22 -19 -9 -28 -18 -24 -28 3 -8 1 -14 -5 -14
-5 0 -13 -7 -16 -16 -3 -8 -2 -12 4 -9 6 3 7 -1 4 -9 -3 -9 -10 -13 -15 -10
-5 3 -6 -2 -3 -10 3 -8 -1 -25 -10 -38 -8 -13 -14 -35 -12 -50 2 -15 -1 -25
-5 -22 -5 3 -9 -4 -9 -15 0 -12 -4 -21 -10 -21 -5 0 -10 5 -10 11 0 5 -4 8
-10 4 -5 -3 -2 -14 7 -25 9 -10 21 -16 26 -13 5 3 4 -4 -2 -15 -8 -15 -8 -23
0 -27 6 -4 8 -14 5 -22 -3 -8 -1 -11 4 -8 19 11 10 -8 -12 -26 -15 -13 -17
-19 -7 -19 8 0 20 5 27 12 19 19 14 -2 -7 -29 -22 -27 -18 -46 12 -78 11 -11
16 -14 12 -6 -5 9 -4 12 3 8 5 -4 8 -16 5 -27 -3 -13 0 -20 8 -20 12 0 12 -2
0 -9 -9 -6 -10 -11 -2 -15 6 -4 11 -12 11 -17 0 -6 -4 -7 -10 -4 -5 3 -10 1
-10 -4 0 -6 5 -11 10 -11 6 0 10 -13 10 -28 0 -15 5 -33 12 -40 7 -7 8 -12 2
-12 -7 0 -10 -47 -9 -135 2 -79 -1 -135 -7 -135 -5 0 -6 -5 -2 -12 7 -12 6
-101 -2 -142 -2 -11 -7 -73 -10 -136 -3 -63 -7 -131 -9 -150 -2 -19 -6 -88
-10 -154 -3 -65 -7 -122 -10 -125 -2 -4 -7 -50 -11 -101 -3 -52 -8 -98 -10
-101 -2 -4 -6 -42 -9 -85 -3 -44 -10 -118 -16 -166 -6 -48 -8 -92 -4 -98 3 -5
2 -10 -3 -10 -6 0 -13 -7 -16 -16 -4 -10 -2 -13 7 -8 9 6 9 4 1 -7 -5 -8 -9
-25 -8 -39 2 -14 -5 -47 -13 -75 -9 -27 -17 -59 -18 -70 -1 -11 -6 -40 -10
-65 -4 -25 -8 -53 -8 -62 -1 -9 -6 -14 -11 -11 -5 4 -7 -1 -3 -10 3 -10 2 -17
-3 -17 -5 0 -7 -7 -4 -15 4 -8 1 -15 -6 -15 -6 0 -9 -4 -5 -9 3 -5 1 -12 -5
-16 -7 -4 -7 -12 0 -25 9 -16 8 -18 -6 -13 -12 4 -15 3 -10 -5 4 -7 2 -12 -4
-12 -6 0 -8 -4 -5 -10 3 -5 2 -10 -3 -10 -5 0 -9 -6 -10 -12 -5 -62 -10 -81
-23 -89 -11 -7 -10 -9 6 -10 11 0 14 -3 8 -6 -7 -2 -13 -11 -13 -19 0 -17 -17
-19 -22 -2 -3 7 -7 5 -11 -6 -4 -11 -3 -15 4 -10 8 4 9 -1 3 -17 -4 -13 -8
-32 -8 -41 0 -13 -4 -14 -13 -6 -10 8 -13 5 -14 -13 -1 -13 -1 -28 0 -32 1 -5
-9 -6 -21 -2 -16 4 -19 3 -9 -3 9 -7 10 -12 2 -16 -6 -4 -8 -13 -4 -19 16 -25
14 -57 -3 -57 -14 0 -15 -2 -3 -17 12 -15 12 -16 -3 -10 -13 4 -15 2 -11 -10
4 -11 2 -14 -5 -9 -7 4 -12 15 -13 24 0 10 -3 12 -6 5 -3 -9 -10 -10 -23 -3
-13 7 -20 6 -23 -3 -3 -7 -6 -4 -6 6 -1 14 -5 16 -21 7 -17 -9 -24 -3 -58 42
-22 29 -77 113 -123 186 -46 73 -97 154 -114 180 l-30 47 -81 1 c-151 2 -244
69 -310 224 -42 97 -59 122 -113 161 -38 29 -97 109 -119 164 -7 17 -14 70
-15 117 -2 80 -5 90 -36 133 -19 26 -53 84 -76 129 -62 120 -126 229 -447 761
-133 221 -172 293 -341 628 -69 136 -137 263 -151 282 -14 18 -26 38 -26 44 0
6 -5 11 -11 11 -19 0 -2 -170 22 -219 35 -73 48 -184 68 -579 6 -112 13 -207
15 -210 2 -4 7 -50 10 -102 4 -52 13 -165 21 -250 14 -149 53 -602 75 -875 32
-412 39 -516 45 -670 7 -201 12 -298 26 -459 5 -66 9 -203 9 -305 0 -102 2
-208 4 -236 2 -27 7 -135 10 -240 3 -104 8 -244 11 -310 3 -66 7 -194 11 -285
5 -164 10 -223 38 -460 24 -202 47 -325 106 -560 44 -175 58 -239 65 -305 4
-32 9 -68 11 -80 12 -52 15 -320 5 -410 -5 -54 -8 -101 -6 -103 5 -6 179 92
304 171 476 300 911 725 1228 1202 362 543 579 1142 660 1823 22 188 25 922 4
1372 -27 592 -10 1289 38 1610 31 203 48 287 106 514 80 317 131 460 265 751
107 233 172 431 284 860 14 55 35 132 46 170 25 86 37 153 55 320 41 378 54
444 145 750 46 154 56 200 80 365 6 41 15 98 20 125 27 154 33 216 34 370 1
145 -2 175 -17 203 -10 17 -21 32 -25 32 -4 0 -8 -21 -9 -48z m-912 -2405
c-10 -9 -11 -8 -5 6 3 10 9 15 12 12 3 -3 0 -11 -7 -18z m189 -177 c0 -5 -4
-10 -10 -10 -5 0 -10 5 -10 10 0 6 5 10 10 10 6 0 10 -4 10 -10z m-1124 -132
c4 -7 3 -8 -5 -4 -15 10 -26 -21 -12 -38 10 -12 6 -26 -10 -26 -6 0 -6 42 0
73 2 11 19 8 27 -5z m-126 -152 c0 -3 -4 -8 -10 -11 -5 -3 -10 -1 -10 4 0 6 5
11 10 11 6 0 10 -2 10 -4z m390 -170 c0 -2 -7 -7 -16 -10 -8 -3 -12 -2 -9 4 6
10 25 14 25 6z m308 -1342 c1 -14 -2 -23 -8 -19 -12 7 -14 45 -2 45 4 0 9 -11
10 -26z m-288 -2578 c0 -3 -4 -8 -10 -11 -5 -3 -10 -1 -10 4 0 6 5 11 10 11 6
0 10 -2 10 -4z"/>
<path d="M5174 11168 c1 -29 5 -37 24 -41 19 -4 20 -2 10 11 -7 8 -18 27 -24
41 -11 25 -12 25 -10 -11z"/>
<path d="M4432 11150 c0 -14 2 -19 5 -12 2 6 2 18 0 25 -3 6 -5 1 -5 -13z"/>
<path d="M4305 11140 c3 -5 14 -10 23 -10 15 0 15 2 2 10 -20 13 -33 13 -25 0z"/>
<path d="M6595 11140 c3 -5 8 -10 11 -10 2 0 4 5 4 10 0 6 -5 10 -11 10 -5 0
-7 -4 -4 -10z"/>
<path d="M4251 11135 c0 -13 38 -59 44 -54 2 3 -7 18 -20 34 -13 17 -24 26
-24 20z"/>
<path d="M4358 11123 c7 -3 16 -2 19 1 4 3 -2 6 -13 5 -11 0 -14 -3 -6 -6z"/>
<path d="M4996 11047 c3 -10 9 -15 12 -12 3 3 0 11 -7 18 -10 9 -11 8 -5 -6z"/>
<path d="M4311 11014 c0 -11 3 -14 6 -6 3 7 2 16 -1 19 -3 4 -6 -2 -5 -13z"/>
<path d="M4311 10964 c0 -11 3 -14 6 -6 3 7 2 16 -1 19 -3 4 -6 -2 -5 -13z"/>
<path d="M4435 10950 c-3 -5 -2 -10 4 -10 5 0 13 5 16 10 3 6 2 10 -4 10 -5 0
-13 -4 -16 -10z"/>
<path d="M4704 10938 l-19 -23 23 19 c12 11 22 21 22 23 0 8 -8 2 -26 -19z"/>
<path d="M4456 10911 c-4 -5 0 -13 8 -18 8 -4 15 -12 15 -18 3 -27 14 -45 29
-45 15 1 15 2 2 13 -8 7 -16 18 -18 26 -5 25 -30 53 -36 42z"/>
<path d="M4500 10810 c8 -5 17 -7 20 -5 3 2 16 -12 29 -31 17 -25 27 -31 32
-22 9 14 -9 41 -22 33 -4 -3 -12 3 -18 13 -5 9 -20 18 -33 19 -17 2 -19 0 -8
-7z"/>
<path d="M4387 10775 c9 -19 18 -33 21 -31 4 5 -26 66 -33 66 -3 0 3 -16 12
-35z"/>
<path d="M5001 10794 c0 -11 3 -14 6 -6 3 7 2 16 -1 19 -3 4 -6 -2 -5 -13z"/>
<path d="M4597 10735 c9 -26 44 -65 54 -60 4 3 17 -11 29 -30 24 -39 32 -42
50 -20 11 13 10 14 -4 9 -11 -4 -16 -1 -16 12 0 14 -3 15 -9 6 -5 -9 -15 -2
-35 27 -16 22 -32 39 -36 38 -5 -1 -16 7 -24 18 -16 19 -16 19 -9 0z"/>
<path d="M6928 10683 c5 -21 7 -23 10 -9 2 10 0 22 -6 28 -6 6 -7 0 -4 -19z"/>
<path d="M4439 10695 c-3 -5 -2 -28 2 -50 5 -31 6 -34 8 -12 l1 27 40 -20 c22
-11 40 -18 40 -15 0 2 -18 14 -39 25 -22 11 -41 28 -43 37 -2 10 -6 14 -9 8z"/>
<path d="M4746 10615 c-11 -8 -15 -15 -9 -15 6 0 16 7 23 15 16 19 11 19 -14
0z"/>
<path d="M4550 10605 c0 -2 18 -14 40 -25 22 -11 40 -18 40 -15 0 2 -18 14
-40 25 -22 11 -40 18 -40 15z"/>
<path d="M4770 10600 c-8 -5 -10 -10 -5 -10 6 0 17 5 25 10 8 5 11 10 5 10 -5
0 -17 -5 -25 -10z"/>
<path d="M4810 10590 c-8 -5 -10 -10 -5 -10 6 0 17 5 25 10 8 5 11 10 5 10 -5
0 -17 -5 -25 -10z"/>
<path d="M4839 10573 c-13 -17 -13 -17 6 -3 11 8 22 16 24 17 2 2 0 3 -6 3 -6
0 -17 -8 -24 -17z"/>
<path d="M4701 10540 c0 -14 4 -32 9 -40 9 -13 10 -13 9 0 -1 8 -5 26 -9 40
l-8 25 -1 -25z"/>
<path d="M4895 10550 c-3 -5 -2 -10 4 -10 5 0 13 5 16 10 3 6 2 10 -4 10 -5 0
-13 -4 -16 -10z"/>
<path d="M4930 10540 c-9 -6 -10 -10 -3 -10 6 0 15 5 18 10 8 12 4 12 -15 0z"/>
<path d="M4959 10523 c-13 -16 -12 -17 4 -4 9 7 17 15 17 17 0 8 -8 3 -21 -13z"/>
<path d="M4986 10514 c-3 -7 15 -9 52 -6 82 5 86 9 15 13 -39 3 -64 0 -67 -7z"/>
<path d="M5128 10483 c6 -2 18 -2 25 0 6 3 1 5 -13 5 -14 0 -19 -2 -12 -5z"/>
<path d="M5188 10483 c6 -2 18 -2 25 0 6 3 1 5 -13 5 -14 0 -19 -2 -12 -5z"/>
<path d="M4721 10424 c0 -11 3 -14 6 -6 3 7 2 16 -1 19 -3 4 -6 -2 -5 -13z"/>
<path d="M4987 10391 c3 -12 10 -21 15 -21 13 0 6 32 -9 37 -7 3 -9 -3 -6 -16z"/>
<path d="M4731 10384 c0 -11 3 -14 6 -6 3 7 2 16 -1 19 -3 4 -6 -2 -5 -13z"/>
<path d="M5098 10393 c6 -2 18 -2 25 0 6 3 1 5 -13 5 -14 0 -19 -2 -12 -5z"/>
<path d="M4751 10274 c0 -11 3 -14 6 -6 3 7 2 16 -1 19 -3 4 -6 -2 -5 -13z"/>
<path d="M4800 10180 c8 -5 22 -9 30 -9 10 0 8 3 -5 9 -27 12 -43 12 -25 0z"/>
<path d="M5078 10083 c7 -3 16 -2 19 1 4 3 -2 6 -13 5 -11 0 -14 -3 -6 -6z"/>
<path d="M5101 9754 c0 -11 3 -14 6 -6 3 7 2 16 -1 19 -3 4 -6 -2 -5 -13z"/>
<path d="M7687 9758 c-2 -7 0 -21 5 -31 5 -9 6 -23 2 -29 -4 -7 -3 -8 4 -4 7
4 12 1 12 -8 0 -8 7 -22 16 -30 10 -10 11 -16 3 -16 -8 0 -8 -4 -2 -12 6 -7
11 -20 12 -28 5 -64 12 -94 22 -100 7 -5 7 -9 -3 -12 -7 -3 -15 -19 -16 -34
-1 -16 -7 -30 -12 -32 -6 -2 -10 -8 -10 -13 0 -6 4 -8 8 -5 5 3 9 -1 9 -9 0
-8 -4 -12 -8 -10 -4 3 -30 -7 -58 -22 -49 -25 -54 -25 -106 -14 -30 7 -67 19
-82 26 -46 23 -87 39 -105 40 -10 1 -29 10 -43 19 -14 9 -25 12 -25 7 0 -9 54
-35 66 -31 4 1 10 -2 13 -8 3 -5 45 -30 92 -57 48 -26 102 -61 120 -76 19 -16
38 -29 43 -29 17 0 98 73 106 96 5 13 14 24 19 24 6 0 8 7 4 16 -4 10 -1 15 8
13 8 -2 31 3 52 10 28 9 41 10 51 2 7 -6 21 -9 30 -5 10 4 18 0 22 -10 11 -30
94 -61 162 -61 34 0 62 2 62 6 0 4 7 10 16 13 8 3 13 2 10 -3 -3 -5 6 -9 19
-10 14 -1 36 -3 50 -4 17 -1 25 -8 25 -21 0 -14 3 -17 11 -9 12 12 58 -7 79
-32 7 -8 19 -15 26 -15 8 0 14 -4 14 -8 0 -5 16 -17 35 -28 19 -10 35 -24 35
-30 0 -6 9 -14 20 -17 11 -3 20 0 20 5 0 7 5 6 13 -1 8 -6 17 -8 20 -4 4 3 7
0 7 -7 0 -7 3 -11 6 -7 3 3 -1 18 -9 34 -8 15 -21 41 -28 57 -23 48 -108 96
-179 101 -74 6 -287 83 -360 131 -41 27 -103 98 -169 191 -35 50 -95 103 -117
103 -7 0 -14 -6 -17 -12z m823 -568 c0 -5 -2 -10 -4 -10 -3 0 -8 5 -11 10 -3
6 -1 10 4 10 6 0 11 -4 11 -10z"/>
<path d="M5204 9601 c3 -5 16 -11 28 -14 22 -6 22 -5 4 8 -22 17 -40 20 -32 6z"/>
<path d="M8450 9508 c0 -30 3 -33 31 -35 17 -1 38 -8 45 -14 12 -10 13 -8 8 6
-5 12 -4 16 4 11 6 -3 13 -2 17 4 3 5 -5 12 -19 16 -14 3 -24 11 -23 17 1 7
-9 11 -27 9 -18 -3 -26 0 -22 7 4 6 2 11 -3 11 -6 0 -11 -15 -11 -32z m40 -8
c0 -5 -2 -10 -4 -10 -3 0 -8 5 -11 10 -3 6 -1 10 4 10 6 0 11 -4 11 -10z"/>
<path d="M8565 9470 c-3 -5 1 -10 9 -10 9 0 16 5 16 10 0 6 -4 10 -9 10 -6 0
-13 -4 -16 -10z"/>
<path d="M5015 9220 c3 -5 10 -10 16 -10 5 0 9 5 9 10 0 6 -7 10 -16 10 -8 0
-12 -4 -9 -10z"/>
<path d="M5155 9200 c16 -6 12 -9 -20 -12 l-40 -5 38 -1 c26 -1 37 -7 37 -17
0 -12 -4 -13 -19 -5 -24 12 -34 13 -27 1 4 -5 3 -11 -1 -14 -5 -2 -3 -2 4 -1
6 2 36 -10 65 -26 67 -37 94 -39 49 -3 -18 14 -40 41 -47 60 -10 24 -20 33
-37 32 -21 0 -21 -1 -2 -9z"/>
<path d="M4944 9175 c-9 -14 -15 -27 -13 -30 3 -2 12 10 21 26 21 36 15 39 -8
4z"/>
<path d="M5070 9166 c0 -2 7 -7 16 -10 8 -3 12 -2 9 4 -6 10 -25 14 -25 6z"/>
<path d="M5280 9122 c0 -17 4 -34 10 -37 6 -4 7 6 3 27 -8 44 -13 48 -13 10z"/>
<path d="M4921 9114 c0 -11 3 -14 6 -6 3 7 2 16 -1 19 -3 4 -6 -2 -5 -13z"/>
<path d="M4885 9009 c-3 -19 -9 -43 -12 -54 -4 -16 -3 -17 7 -8 7 6 13 23 13
37 0 14 3 23 7 21 9 -6 23 25 15 33 -3 3 -5 -1 -5 -9 0 -12 -2 -12 -9 0 -6 10
-11 4 -16 -20z"/>
<path d="M8782 8988 c-7 -7 -12 -19 -12 -27 0 -11 5 -8 16 7 18 25 15 39 -4
20z"/>
<path d="M5423 8918 c-20 -40 -31 -68 -82 -210 -10 -29 -26 -87 -36 -128 -9
-41 -26 -105 -37 -142 -11 -37 -18 -73 -15 -80 3 -7 6 -3 6 8 1 12 8 27 16 34
8 7 14 19 13 28 -8 44 47 10 76 -46 26 -50 30 -32 6 29 -23 61 -26 105 -7 112
9 4 9 6 -1 6 -7 1 -15 -5 -18 -13 -3 -8 -12 -12 -21 -9 -13 5 -13 7 2 16 13 7
14 11 5 17 -16 10 32 200 61 241 17 25 27 29 67 29 44 1 46 2 27 16 -14 11
-20 28 -22 62 -1 26 -2 53 -2 60 -2 23 -17 12 -38 -30z"/>
<path d="M7860 8855 c54 -64 112 -120 123 -120 6 0 14 -11 18 -25 4 -14 8 -18
8 -10 1 8 11 0 23 -20 13 -19 26 -36 30 -38 5 -2 8 -10 8 -18 0 -8 6 -14 14
-14 16 0 28 -24 20 -43 -3 -8 3 -20 12 -28 10 -8 15 -9 11 -3 -4 7 -1 14 7 17
16 6 28 -16 20 -37 -3 -8 -1 -17 5 -21 10 -5 17 31 12 59 -1 5 5 3 15 -4 10
-9 12 -16 5 -18 -6 -2 -11 -8 -11 -13 0 -5 9 -4 19 3 10 6 17 18 14 25 -3 7 1
21 8 31 11 14 11 15 -1 5 -8 -7 -28 -12 -44 -12 -28 2 -28 2 -6 6 14 3 29 9
34 13 5 5 -2 7 -15 4 -17 -4 -20 -3 -11 4 11 7 11 10 -2 15 -8 3 -18 2 -21 -4
-4 -5 -11 -6 -17 -3 -6 4 -8 -1 -3 -15 4 -13 2 -21 -5 -21 -6 0 -13 13 -16 30
-4 16 -10 27 -15 24 -5 -3 -9 -3 -9 0 0 3 9 10 20 16 16 9 18 8 14 -5 -4 -9
-1 -15 7 -15 8 0 14 10 14 24 0 13 -3 22 -7 20 -10 -6 -51 16 -44 23 3 3 12 0
21 -7 29 -24 14 2 -20 36 -21 20 -41 32 -48 28 -9 -5 -9 -4 0 6 10 11 8 17 -9
32 -12 10 -27 18 -35 18 -7 0 -25 7 -38 16 -14 9 -31 14 -39 11 -7 -3 -31 9
-52 26 l-39 31 25 -29z m210 -165 c0 -5 -7 -7 -15 -4 -8 4 -15 8 -15 10 0 2 7
4 15 4 8 0 15 -4 15 -10z"/>
<path d="M9275 8864 c-12 -13 -13 -19 -4 -24 6 -5 18 -3 24 3 7 7 9 14 4 15
-5 2 -7 8 -3 13 9 15 -3 10 -21 -7z"/>
<path d="M4990 8849 c0 -5 5 -7 10 -4 6 3 10 8 10 11 0 2 -4 4 -10 4 -5 0 -10
-5 -10 -11z"/>
<path d="M9309 8828 c11 -15 41 -15 41 -1 0 3 -6 3 -14 0 -7 -3 -20 0 -27 6
-11 10 -11 9 0 -5z"/>
<path d="M4784 8698 l-21 -64 22 -34 c13 -19 21 -37 20 -40 -2 -3 7 -13 20
-22 20 -15 19 -10 -11 39 -19 31 -34 62 -34 69 0 18 20 68 29 74 5 3 5 13 2
23 -5 13 -13 0 -27 -45z"/>
<path d="M4835 8690 c10 -11 20 -20 23 -20 3 0 -3 9 -13 20 -10 11 -20 20 -23
20 -3 0 3 -9 13 -20z"/>
<path d="M4870 8645 c0 -1 15 -14 32 -31 18 -16 25 -20 15 -8 -9 11 -17 25
-17 31 0 5 -7 10 -15 10 -8 0 -15 -1 -15 -2z"/>
<path d="M9765 8590 c3 -5 8 -10 11 -10 2 0 4 5 4 10 0 6 -5 10 -11 10 -5 0
-7 -4 -4 -10z"/>
<path d="M8290 8570 c-20 -12 -10 -19 14 -10 11 3 15 9 10 13 -6 3 -16 2 -24
-3z"/>
<path d="M4767 8515 c-29 -26 -28 -32 2 -15 10 5 21 16 25 25 7 19 6 19 -27
-10z"/>
<path d="M8260 8530 c0 -5 5 -10 11 -10 5 0 7 5 4 10 -3 6 -8 10 -11 10 -2 0
-4 -4 -4 -10z"/>
<path d="M6348 8471 c-12 -16 -45 -56 -71 -89 -26 -34 -61 -66 -76 -73 -24
-11 -27 -15 -15 -27 8 -7 18 -10 24 -7 5 3 20 8 32 10 12 3 25 10 30 17 6 10
8 10 8 1 0 -36 63 16 75 62 11 40 12 69 3 75 -4 3 -1 18 7 33 18 35 13 34 -17
-2z"/>
<path d="M8233 8478 c3 -9 1 -19 -6 -22 -9 -3 -9 -5 0 -5 18 -1 23 13 11 29
-8 12 -9 12 -5 -2z"/>
<path d="M4635 8454 c-27 -13 -39 -21 -25 -18 29 7 100 43 85 43 -5 0 -32 -12
-60 -25z"/>
<path d="M4922 8435 c12 -15 14 -25 7 -38 -6 -9 -8 -17 -5 -17 3 0 10 8 15 19
8 14 6 23 -12 37 -22 19 -22 19 -5 -1z"/>
<path d="M8540 8440 c0 -5 5 -10 11 -10 5 0 7 5 4 10 -3 6 -8 10 -11 10 -2 0
-4 -4 -4 -10z"/>
<path d="M4550 8420 c-8 -5 -10 -10 -5 -10 6 0 17 5 25 10 8 5 11 10 5 10 -5
0 -17 -5 -25 -10z"/>
<path d="M4338 8295 c-202 -137 -197 -134 -335 -184 -805 -289 -1525 -857
-2010 -1586 -361 -542 -580 -1148 -660 -1825 -24 -202 -24 -678 0 -880 109
-928 492 -1746 1122 -2401 l83 -86 7 106 c4 58 7 160 8 226 1 66 3 105 5 88 4
-39 13 -41 36 -10 17 22 17 22 11 -12 -3 -18 -5 -50 -6 -70 -1 -33 -2 -34 -9
-11 -6 15 -7 -4 -3 -49 4 -54 3 -72 -6 -67 -8 5 -11 -7 -11 -41 0 -26 -3 -86
-6 -133 -3 -54 -2 -80 4 -70 8 13 25 165 48 417 5 63 9 72 27 76 l22 4 -22 2
c-14 1 -23 9 -26 24 -3 16 -5 13 -6 -10 0 -18 -5 -33 -9 -33 -5 0 -14 -10 -21
-22 -10 -20 -11 -15 -6 27 14 122 25 200 49 340 14 83 27 166 29 185 3 26 5
21 7 -20 2 -43 6 -26 17 80 7 74 14 146 14 160 0 14 4 75 8 135 10 126 79 383
107 398 10 6 13 12 6 16 -7 4 14 87 60 233 l71 227 36 3 36 4 -30 8 c-16 5
-32 13 -35 17 -3 5 -16 10 -28 12 -23 3 -80 53 -112 97 l-18 26 36 -3 37 -2
-39 10 c-22 5 -42 11 -44 14 -6 6 140 215 150 215 5 0 7 4 3 10 -3 5 4 38 16
75 17 53 25 65 42 66 22 0 22 0 0 9 -22 9 -23 14 -23 135 0 107 2 125 16 125
8 0 13 4 10 9 -3 4 27 17 66 28 l71 19 41 137 c40 136 40 137 71 138 30 2 30
2 3 6 -16 2 -28 6 -28 8 0 2 22 84 49 182 161 582 164 593 180 593 13 0 13 2
3 9 -11 7 -5 49 33 227 69 322 72 337 105 484 16 74 32 147 34 161 6 32 174
797 187 852 9 35 12 37 52 39 l42 1 -37 4 c-21 2 -38 9 -38 15 0 11 94 321
110 362 4 11 43 128 86 259 78 236 79 238 104 232 23 -6 23 -5 7 7 -16 12 0
25 162 136 100 67 184 122 188 122 14 1 47 30 35 30 -7 0 -89 -52 -184 -115z"/>
<path d="M8430 8400 c-9 -6 -10 -10 -3 -10 6 0 15 5 18 10 8 12 4 12 -15 0z"/>
<path d="M5000 8345 c13 -14 26 -25 28 -25 3 0 -5 11 -18 25 -13 14 -26 25
-28 25 -3 0 5 -11 18 -25z"/>
<path d="M8244 8358 c3 -15 26 -23 26 -8 0 6 -4 9 -9 6 -5 -4 -12 -1 -14 4 -3
6 -4 5 -3 -2z"/>
<path d="M8428 8346 c5 -19 4 -20 -14 -6 -18 14 -18 14 -5 -2 15 -20 31 -15
31 8 0 9 5 12 13 8 6 -4 8 -3 4 1 -16 19 -35 13 -29 -9z"/>
<path d="M5050 8287 c0 -2 15 -16 33 -33 l32 -29 -29 33 c-28 30 -36 37 -36
29z"/>
<path d="M5215 8270 c-3 -5 -1 -10 4 -10 6 0 11 5 11 10 0 6 -2 10 -4 10 -3 0
-8 -4 -11 -10z"/>
<path d="M8417 8237 c-9 -23 12 -33 30 -14 10 10 11 17 4 21 -6 4 -11 0 -12
-11 0 -16 -1 -16 -8 1 -7 17 -8 18 -14 3z"/>
<path d="M8380 8220 c0 -5 5 -10 11 -10 5 0 7 5 4 10 -3 6 -8 10 -11 10 -2 0
-4 -4 -4 -10z"/>
<path d="M4772 8181 c-11 -7 -11 -9 2 -14 10 -4 16 -1 16 8 0 17 -1 17 -18 6z"/>
<path d="M8410 8071 c0 -11 4 -22 9 -25 4 -3 6 6 3 19 -5 30 -12 33 -12 6z"/>
<path d="M4578 7843 c7 -3 16 -2 19 1 4 3 -2 6 -13 5 -11 0 -14 -3 -6 -6z"/>
<path d="M5770 7796 c0 -9 5 -16 10 -16 6 0 10 4 10 9 0 6 -4 13 -10 16 -5 3
-10 -1 -10 -9z"/>
<path d="M6534 7795 c2 -11 7 -56 11 -100 4 -44 10 -98 15 -120 5 -22 14 -69
21 -105 7 -36 23 -89 36 -117 12 -29 20 -53 17 -53 -4 0 -1 -7 6 -15 6 -8 9
-19 6 -24 -4 -5 -1 -13 5 -16 5 -4 8 -13 6 -19 -3 -7 4 -18 14 -24 23 -14 24
-5 9 48 -13 44 -4 73 19 67 14 -3 2 26 -44 117 -60 116 -71 148 -81 240 -6 53
-21 107 -35 126 -8 12 -9 11 -5 -5z"/>
<path d="M7591 7658 c30 -56 57 -104 62 -106 4 -2 7 -8 7 -13 0 -5 42 -87 94
-182 103 -191 171 -318 270 -511 37 -71 75 -140 85 -155 10 -14 21 -36 25 -48
4 -12 30 -61 58 -110 28 -48 69 -119 90 -158 21 -38 45 -76 52 -85 7 -8 27
-42 45 -75 18 -33 42 -69 52 -81 11 -11 34 -47 52 -80 55 -101 109 -171 144
-183 44 -16 110 -73 156 -135 22 -28 42 -52 46 -54 7 -2 5 695 -3 794 -4 56
-10 69 -67 150 -283 399 -670 775 -1069 1041 -166 111 -161 111 -99 -9z"/>
<path d="M4831 7724 c0 -11 3 -14 6 -6 3 7 2 16 -1 19 -3 4 -6 -2 -5 -13z"/>
<path d="M4200 7648 c0 -12 7 -18 23 -17 15 0 17 2 7 6 -8 3 -18 11 -22 17 -5
7 -8 4 -8 -6z"/>
<path d="M3973 7633 c9 -2 25 -2 35 0 9 3 1 5 -18 5 -19 0 -27 -2 -17 -5z"/>
<path d="M4078 7633 c6 -2 18 -2 25 0 6 3 1 5 -13 5 -14 0 -19 -2 -12 -5z"/>
<path d="M4811 7604 c0 -11 3 -14 6 -6 3 7 2 16 -1 19 -3 4 -6 -2 -5 -13z"/>
<path d="M4792 7480 c0 -14 2 -19 5 -12 2 6 2 18 0 25 -3 6 -5 1 -5 -13z"/>
<path d="M5815 7450 c-3 -5 3 -10 15 -10 13 0 19 -4 14 -12 -4 -7 -3 -8 5 -4
9 6 9 11 0 22 -14 16 -25 18 -34 4z"/>
<path d="M4758 7404 c5 -3 7 -29 4 -59 -2 -30 -1 -55 4 -55 15 0 11 113 -4
116 -7 1 -9 0 -4 -2z"/>
<path d="M4171 7374 c0 -11 3 -14 6 -6 3 7 2 16 -1 19 -3 4 -6 -2 -5 -13z"/>
<path d="M4720 7370 c0 -5 7 -10 16 -10 8 0 12 5 9 10 -3 6 -10 10 -16 10 -5
0 -9 -4 -9 -10z"/>
<path d="M4162 7290 c0 -14 2 -19 5 -12 2 6 2 18 0 25 -3 6 -5 1 -5 -13z"/>
<path d="M4761 7244 c0 -11 3 -14 6 -6 3 7 2 16 -1 19 -3 4 -6 -2 -5 -13z"/>
<path d="M4073 7213 c9 -2 23 -2 30 0 6 3 -1 5 -18 5 -16 0 -22 -2 -12 -5z"/>
<path d="M5854 7200 c0 -13 4 -16 10 -10 7 7 7 13 0 20 -6 6 -10 3 -10 -10z"/>
<path d="M6690 7166 c0 -2 8 -10 18 -17 15 -13 16 -12 3 4 -13 16 -21 21 -21
13z"/>
<path d="M4771 7094 c0 -11 3 -14 6 -6 3 7 2 16 -1 19 -3 4 -6 -2 -5 -13z"/>
<path d="M9200 7079 c0 -5 5 -7 10 -4 6 3 10 8 10 11 0 2 -4 4 -10 4 -5 0 -10
-5 -10 -11z"/>
<path d="M4567 7043 c-4 -3 -7 -11 -7 -17 0 -6 5 -5 12 2 6 6 9 14 7 17 -3 3
-9 2 -12 -2z"/>
<path d="M4771 7014 c0 -11 3 -14 6 -6 3 7 2 16 -1 19 -3 4 -6 -2 -5 -13z"/>
<path d="M4601 6948 c-1 -16 4 -28 9 -28 12 0 12 8 0 35 -8 18 -9 17 -9 -7z"/>
<path d="M9150 6930 c0 -5 7 -10 16 -10 8 0 12 5 9 10 -3 6 -10 10 -16 10 -5
0 -9 -4 -9 -10z"/>
<path d="M4781 6864 c0 -11 3 -14 6 -6 3 7 2 16 -1 19 -3 4 -6 -2 -5 -13z"/>
<path d="M4791 6714 c0 -11 3 -14 6 -6 3 7 2 16 -1 19 -3 4 -6 -2 -5 -13z"/>
<path d="M4791 6634 c0 -11 3 -14 6 -6 3 7 2 16 -1 19 -3 4 -6 -2 -5 -13z"/>
<path d="M4709 6483 c-13 -16 -12 -17 4 -4 9 7 17 15 17 17 0 8 -8 3 -21 -13z"/>
<path d="M4646 6411 c-27 -27 -47 -54 -45 -59 2 -6 25 16 51 49 26 32 46 59
45 59 -2 0 -24 -22 -51 -49z"/>
<path d="M3668 6323 c12 -2 30 -2 40 0 9 3 -1 5 -23 4 -22 0 -30 -2 -17 -4z"/>
<path d="M3851 6294 c0 -11 3 -14 6 -6 3 7 2 16 -1 19 -3 4 -6 -2 -5 -13z"/>
<path d="M4577 6220 c-4 -30 -7 -70 -7 -87 0 -18 -3 -33 -7 -33 -5 0 -8 -35
-9 -78 -1 -60 -11 -111 -46 -232 -25 -85 -69 -242 -99 -348 l-54 -192 -30 5
-30 6 28 -16 c19 -11 26 -22 23 -33 -5 -17 -59 -244 -138 -590 l-43 -183 -35
5 -35 6 34 -15 c18 -8 31 -20 29 -27 -3 -7 -20 -68 -38 -136 -22 -83 -37 -121
-46 -118 -9 3 -9 -2 -1 -24 6 -16 14 -27 18 -24 4 2 25 -23 48 -56 l40 -61
-76 -100 c-70 -92 -79 -100 -104 -95 -14 3 -40 8 -55 11 l-29 5 30 -12 c72
-31 71 -29 50 -97 l-18 -61 -36 5 -36 5 33 -10 c31 -10 32 -13 32 -63 0 -29
-3 -82 -6 -119 l-7 -66 -46 2 c-25 2 -59 6 -76 10 -26 6 -25 5 10 -14 l40 -21
-49 5 c-27 3 -99 6 -160 6 l-111 1 30 26 30 26 -38 -22 c-34 -18 -44 -20 -80
-11 -23 6 -49 14 -57 17 -8 4 -22 8 -30 9 -8 2 -42 10 -75 18 -32 8 -61 13
-63 11 -2 -2 16 -9 39 -15 108 -29 379 -118 392 -130 4 -4 -27 -104 -70 -223
-78 -216 -78 -217 -108 -218 -29 -1 -29 -1 -5 -8 23 -6 25 -11 22 -52 -2 -24
-19 -76 -38 -114 -22 -48 -31 -78 -27 -94 6 -22 4 -23 -23 -18 l-29 5 29 -23
30 -24 -29 -83 c-15 -46 -28 -88 -28 -95 0 -9 -10 -8 -36 3 l-36 15 29 -24 29
-23 -17 -110 c-9 -60 -19 -127 -21 -150 -3 -22 -26 -101 -51 -175 -25 -74 -51
-154 -59 -179 l-13 -45 -2 35 c-2 25 -4 28 -7 13 -2 -13 -7 -23 -11 -23 -4 0
-8 -39 -10 -87 -2 -48 -7 -90 -12 -93 -4 -3 -10 -23 -13 -45 -3 -22 -11 -65
-17 -95 -6 -30 -17 -93 -25 -140 -8 -47 -20 -110 -25 -140 -12 -59 -28 -146
-37 -197 -5 -30 -2 -34 53 -69 129 -83 275 -168 387 -225 l117 -60 1 33 c1 18
1 39 0 46 -1 6 4 12 11 12 11 0 11 2 0 8 -10 7 -6 25 19 83 17 41 33 82 36 92
3 9 9 17 13 17 5 0 12 26 15 58 4 31 24 161 46 287 35 211 46 255 134 525 92
284 113 358 246 880 34 129 64 238 67 242 4 4 25 8 47 11 l40 4 -42 1 c-27 1
-43 7 -43 15 0 6 11 82 25 167 26 160 51 319 86 545 11 72 23 148 27 170 l8
40 64 6 65 6 -62 1 c-53 2 -63 5 -63 20 0 9 16 141 35 292 20 151 43 334 52
406 l16 131 56 11 56 10 -54 -1 -53 -2 7 280 c4 154 8 291 10 305 1 14 3 49 4
78 1 52 2 53 51 84 28 17 50 32 50 34 0 5 -51 -18 -78 -35 l-23 -14 6 59 c13
135 56 778 53 797 -2 12 -7 -3 -11 -33z m-1086 -3834 c-10 -54 -17 -64 -33
-48 -8 8 -8 12 -1 12 6 0 16 20 23 45 16 58 23 53 11 -9z m-22 -83 c0 -5 -7
-24 -15 -43 -9 -22 -12 -26 -9 -10 2 14 5 33 5 43 0 9 5 17 10 17 6 0 10 -3 9
-7z m-332 -1315 c-3 -7 -5 -2 -5 12 0 14 2 19 5 13 2 -7 2 -19 0 -25z"/>
<path d="M4773 6235 c0 -22 2 -30 4 -17 2 12 2 30 0 40 -3 9 -5 -1 -4 -23z"/>
<path d="M5970 6259 c0 -5 5 -7 10 -4 6 3 10 8 10 11 0 2 -4 4 -10 4 -5 0 -10
-5 -10 -11z"/>
<path d="M4763 6110 c0 -25 2 -35 4 -22 2 12 2 32 0 45 -2 12 -4 2 -4 -23z"/>
<path d="M4518 6103 c7 -3 16 -2 19 1 4 3 -2 6 -13 5 -11 0 -14 -3 -6 -6z"/>
<path d="M4753 5980 c0 -30 2 -43 4 -27 2 15 2 39 0 55 -2 15 -4 2 -4 -28z"/>
<path d="M4743 5855 c0 -33 2 -45 4 -27 2 18 2 45 0 60 -2 15 -4 0 -4 -33z"/>
<path d="M4733 5730 c0 -30 2 -43 4 -27 2 15 2 39 0 55 -2 15 -4 2 -4 -28z"/>
<path d="M4723 5605 c0 -27 2 -38 4 -22 2 15 2 37 0 50 -2 12 -4 0 -4 -28z"/>
<path d="M4712 5500 c0 -14 2 -19 5 -12 2 6 2 18 0 25 -3 6 -5 1 -5 -13z"/>
<path d="M3488 5463 c12 -2 30 -2 40 0 9 3 -1 5 -23 4 -22 0 -30 -2 -17 -4z"/>
<path d="M3630 5440 c0 -5 7 -7 15 -4 8 4 15 8 15 10 0 2 -7 4 -15 4 -8 0 -15
-4 -15 -10z"/>
<path d="M4712 5350 c0 -19 2 -27 5 -17 2 9 2 25 0 35 -3 9 -5 1 -5 -18z"/>
<path d="M4268 5263 c7 -3 16 -2 19 1 4 3 -2 6 -13 5 -11 0 -14 -3 -6 -6z"/>
<path d="M8693 5251 c-87 -25 -165 -75 -237 -153 -148 -159 -192 -368 -92
-433 26 -17 87 -37 94 -31 2 3 -10 34 -28 69 -47 97 -45 167 10 285 35 75 121
171 185 205 30 16 58 21 110 21 71 1 85 7 85 39 0 22 -43 22 -127 -2z"/>
<path d="M4701 5134 c0 -11 3 -14 6 -6 3 7 2 16 -1 19 -3 4 -6 -2 -5 -13z"/>
<path d="M6026 5035 c-3 -9 0 -15 9 -15 16 0 20 16 6 24 -5 3 -11 -1 -15 -9z"/>
<path d="M4702 4970 c0 -19 2 -27 5 -17 2 9 2 25 0 35 -3 9 -5 1 -5 -18z"/>
<path d="M6015 4770 c-3 -5 1 -10 10 -10 9 0 13 5 10 10 -3 6 -8 10 -10 10 -2
0 -7 -4 -10 -10z"/>
<path d="M4748 4683 c7 -3 16 -2 19 1 4 3 -2 6 -13 5 -11 0 -14 -3 -6 -6z"/>
<path d="M4673 4480 c0 -25 2 -35 4 -22 2 12 2 32 0 45 -2 12 -4 2 -4 -23z"/>
<path d="M5980 4483 c0 -13 5 -23 10 -23 13 0 13 11 0 30 -8 12 -10 11 -10 -7z"/>
<path d="M3150 4426 c0 -2 7 -7 16 -10 8 -3 12 -2 9 4 -6 10 -25 14 -25 6z"/>
<path d="M3238 4403 c7 -3 16 -2 19 1 4 3 -2 6 -13 5 -11 0 -14 -3 -6 -6z"/>
<path d="M5970 4400 c0 -5 5 -10 11 -10 5 0 7 5 4 10 -3 6 -8 10 -11 10 -2 0
-4 -4 -4 -10z"/>
<path d="M3328 4383 c7 -3 16 -2 19 1 4 3 -2 6 -13 5 -11 0 -14 -3 -6 -6z"/>
<path d="M3805 4250 c-3 -5 -1 -10 4 -10 6 0 11 5 11 10 0 6 -2 10 -4 10 -3 0
-8 -4 -11 -10z"/>
<path d="M5955 4230 c-3 -5 -1 -10 4 -10 6 0 11 5 11 10 0 6 -2 10 -4 10 -3 0
-8 -4 -11 -10z"/>
<path d="M4642 4195 c0 -16 2 -22 5 -12 2 9 2 23 0 30 -3 6 -5 -1 -5 -18z"/>
<path d="M4633 4115 c0 -22 2 -30 4 -17 2 12 2 30 0 40 -3 9 -5 -1 -4 -23z"/>
<path d="M3048 4063 c7 -3 16 -2 19 1 4 3 -2 6 -13 5 -11 0 -14 -3 -6 -6z"/>
<path d="M4130 4016 c0 -2 7 -7 16 -10 8 -3 12 -2 9 4 -6 10 -25 14 -25 6z"/>
<path d="M2968 3923 c7 -3 16 -2 19 1 4 3 -2 6 -13 5 -11 0 -14 -3 -6 -6z"/>
<path d="M3170 3880 c0 -5 5 -10 11 -10 5 0 7 5 4 10 -3 6 -8 10 -11 10 -2 0
-4 -4 -4 -10z"/>
<path d="M4603 3825 c0 -27 2 -38 4 -22 2 15 2 37 0 50 -2 12 -4 0 -4 -28z"/>
<path d="M4818 3773 c12 -2 32 -2 45 0 12 2 2 4 -23 4 -25 0 -35 -2 -22 -4z"/>
<path d="M2898 3673 c7 -3 16 -2 19 1 4 3 -2 6 -13 5 -11 0 -14 -3 -6 -6z"/>
<path d="M2958 3663 c7 -3 16 -2 19 1 4 3 -2 6 -13 5 -11 0 -14 -3 -6 -6z"/>
<path d="M3070 3640 c0 -5 5 -10 11 -10 5 0 7 5 4 10 -3 6 -8 10 -11 10 -2 0
-4 -4 -4 -10z"/>
<path d="M3682 3615 c0 -16 2 -22 5 -12 2 9 2 23 0 30 -3 6 -5 -1 -5 -18z"/>
<path d="M3030 3565 c0 -8 4 -15 10 -15 5 0 7 7 4 15 -4 8 -8 15 -10 15 -2 0
-4 -7 -4 -15z"/>
<path d="M3096 3524 c-3 -8 1 -17 9 -20 24 -10 32 0 14 18 -15 14 -18 14 -23
2z"/>
<path d="M3156 3491 c5 -5 27 -12 49 -15 l40 -6 -45 15 c-53 17 -57 18 -44 6z"/>
<path d="M3655 3460 c-3 -5 -1 -10 4 -10 6 0 11 5 11 10 0 6 -2 10 -4 10 -3 0
-8 -4 -11 -10z"/>
<path d="M3778 3413 c7 -3 16 -2 19 1 4 3 -2 6 -13 5 -11 0 -14 -3 -6 -6z"/>
<path d="M5915 3300 c-3 -5 -1 -10 4 -10 6 0 11 5 11 10 0 6 -2 10 -4 10 -3 0
-8 -4 -11 -10z"/>
<path d="M4511 3244 c0 -11 3 -14 6 -6 3 7 2 16 -1 19 -3 4 -6 -2 -5 -13z"/>
<path d="M4492 3110 c0 -14 2 -19 5 -12 2 6 2 18 0 25 -3 6 -5 1 -5 -13z"/>
<path d="M2890 3050 c0 -6 7 -10 15 -10 8 0 15 2 15 4 0 2 -7 6 -15 10 -8 3
-15 1 -15 -4z"/>
<path d="M5850 3004 c-17 -9 -20 -14 -9 -14 9 0 22 7 29 15 15 18 13 18 -20
-1z"/>
<path d="M4472 2975 c0 -16 2 -22 5 -12 2 9 2 23 0 30 -3 6 -5 -1 -5 -18z"/>
<path d="M5884 2939 c-3 -5 9 -9 25 -9 17 0 31 2 31 4 0 8 -51 13 -56 5z"/>
<path d="M3285 2920 c3 -5 8 -10 11 -10 2 0 4 5 4 10 0 6 -5 10 -11 10 -5 0
-7 -4 -4 -10z"/>
<path d="M4452 2845 c0 -16 2 -22 5 -12 2 9 2 23 0 30 -3 6 -5 -1 -5 -18z"/>
<path d="M4528 2823 c12 -2 32 -2 45 0 12 2 2 4 -23 4 -25 0 -35 -2 -22 -4z"/>
<path d="M5910 2760 c0 -5 5 -10 11 -10 5 0 7 5 4 10 -3 6 -8 10 -11 10 -2 0
-4 -4 -4 -10z"/>
<path d="M2783 2743 c9 -2 25 -2 35 0 9 3 1 5 -18 5 -19 0 -27 -2 -17 -5z"/>
<path d="M3372 2605 c0 -16 2 -22 5 -12 2 9 2 23 0 30 -3 6 -5 -1 -5 -18z"/>
<path d="M5875 2620 c-19 -8 -19 -9 3 -9 12 -1 22 4 22 9 0 6 -1 10 -2 9 -2 0
-12 -4 -23 -9z"/>
<path d="M4401 2574 c0 -11 3 -14 6 -6 3 7 2 16 -1 19 -3 4 -6 -2 -5 -13z"/>
<path d="M3362 2520 c0 -14 2 -19 5 -12 2 6 2 18 0 25 -3 6 -5 1 -5 -13z"/>
<path d="M4381 2484 c0 -11 3 -14 6 -6 3 7 2 16 -1 19 -3 4 -6 -2 -5 -13z"/>
<path d="M5787 2324 c6 -15 23 -19 23 -5 0 5 -7 11 -14 14 -10 4 -13 1 -9 -9z"/>
<path d="M4351 2314 c0 -11 3 -14 6 -6 3 7 2 16 -1 19 -3 4 -6 -2 -5 -13z"/>
<path d="M5820 2316 c0 -2 7 -6 15 -10 8 -3 15 -1 15 4 0 6 -7 10 -15 10 -8 0
-15 -2 -15 -4z"/>
<path d="M3332 2290 c0 -14 2 -19 5 -12 2 6 2 18 0 25 -3 6 -5 1 -5 -13z"/>
<path d="M5738 2293 c7 -3 16 -2 19 1 4 3 -2 6 -13 5 -11 0 -14 -3 -6 -6z"/>
<path d="M5755 2256 c35 -18 64 -21 49 -6 -5 5 -25 12 -44 15 l-35 5 30 -14z"/>
<path d="M5817 2234 c-3 -4 -21 -10 -39 -14 l-33 -8 30 -1 c17 0 41 6 55 14
16 9 20 14 9 15 -9 0 -18 -3 -22 -6z"/>
<path d="M4331 2214 c0 -11 3 -14 6 -6 3 7 2 16 -1 19 -3 4 -6 -2 -5 -13z"/>
<path d="M2653 2175 c0 -22 2 -30 4 -17 2 12 2 30 0 40 -3 9 -5 -1 -4 -23z"/>
<path d="M5718 2183 c6 -2 18 -2 25 0 6 3 1 5 -13 5 -14 0 -19 -2 -12 -5z"/>
<path d="M5770 2176 c0 -2 9 -6 20 -9 11 -3 20 -1 20 4 0 5 -9 9 -20 9 -11 0
-20 -2 -20 -4z"/>
<path d="M3312 2140 c0 -19 2 -27 5 -17 2 9 2 25 0 35 -3 9 -5 1 -5 -18z"/>
<path d="M5688 2123 c6 -2 18 -2 25 0 6 3 1 5 -13 5 -14 0 -19 -2 -12 -5z"/>
<path d="M5928 2063 c7 -3 16 -2 19 1 4 3 -2 6 -13 5 -11 0 -14 -3 -6 -6z"/>
<path d="M4068 2053 c7 -3 16 -2 19 1 4 3 -2 6 -13 5 -11 0 -14 -3 -6 -6z"/>
<path d="M4296 2045 c-3 -8 -1 -15 4 -15 6 0 10 7 10 15 0 8 -2 15 -4 15 -2 0
-6 -7 -10 -15z"/>
<path d="M4138 2043 c12 -2 30 -2 40 0 9 3 -1 5 -23 4 -22 0 -30 -2 -17 -4z"/>
<path d="M4228 2033 c12 -2 30 -2 40 0 9 3 -1 5 -23 4 -22 0 -30 -2 -17 -4z"/>
<path d="M2971 2014 c0 -11 3 -14 6 -6 3 7 2 16 -1 19 -3 4 -6 -2 -5 -13z"/>
<path d="M3292 1990 c0 -19 2 -27 5 -17 2 9 2 25 0 35 -3 9 -5 1 -5 -18z"/>
<path d="M4508 2013 c6 -2 18 -2 25 0 6 3 1 5 -13 5 -14 0 -19 -2 -12 -5z"/>
<path d="M4628 2003 c12 -2 30 -2 40 0 9 3 -1 5 -23 4 -22 0 -30 -2 -17 -4z"/>
<path d="M4748 1993 c12 -2 32 -2 45 0 12 2 2 4 -23 4 -25 0 -35 -2 -22 -4z"/>
<path d="M4868 1983 c7 -3 16 -2 19 1 4 3 -2 6 -13 5 -11 0 -14 -3 -6 -6z"/>
<path d="M4281 1934 c0 -11 3 -14 6 -6 3 7 2 16 -1 19 -3 4 -6 -2 -5 -13z"/>
<path d="M2622 1890 c0 -19 2 -27 5 -17 2 9 2 25 0 35 -3 9 -5 1 -5 -18z"/>
<path d="M3272 1850 c0 -19 2 -27 5 -17 2 9 2 25 0 35 -3 9 -5 1 -5 -18z"/>
<path d="M4262 1820 c0 -14 2 -19 5 -12 2 6 2 18 0 25 -3 6 -5 1 -5 -13z"/>
<path d="M2728 1783 c6 -2 18 -2 25 0 6 3 1 5 -13 5 -14 0 -19 -2 -12 -5z"/>
<path d="M2838 1783 c6 -2 18 -2 25 0 6 3 1 5 -13 5 -14 0 -19 -2 -12 -5z"/>
<path d="M4241 1704 c0 -11 3 -14 6 -6 3 7 2 16 -1 19 -3 4 -6 -2 -5 -13z"/>
<path d="M3198 1703 c7 -3 16 -2 19 1 4 3 -2 6 -13 5 -11 0 -14 -3 -6 -6z"/>
<path d="M2911 1624 c0 -11 3 -14 6 -6 3 7 2 16 -1 19 -3 4 -6 -2 -5 -13z"/>
<path d="M4222 1590 c0 -14 2 -19 5 -12 2 6 2 18 0 25 -3 6 -5 1 -5 -13z"/>
<path d="M2891 1524 c0 -11 3 -14 6 -6 3 7 2 16 -1 19 -3 4 -6 -2 -5 -13z"/>
<path d="M5670 1520 c0 -5 5 -10 10 -10 6 0 10 5 10 10 0 6 -4 10 -10 10 -5 0
-10 -4 -10 -10z"/>
<path d="M4202 1470 c0 -14 2 -19 5 -12 2 6 2 18 0 25 -3 6 -5 1 -5 -13z"/>
<path d="M4181 1354 c0 -11 3 -14 6 -6 3 7 2 16 -1 19 -3 4 -6 -2 -5 -13z"/>
<path d="M5638 1313 c7 -3 16 -2 19 1 4 3 -2 6 -13 5 -11 0 -14 -3 -6 -6z"/>
<path d="M4613 1213 c9 -2 23 -2 30 0 6 3 -1 5 -18 5 -16 0 -22 -2 -12 -5z"/>
<path d="M4162 1095 c0 -16 2 -22 5 -12 2 9 2 23 0 30 -3 6 -5 -1 -5 -18z"/>
<path d="M4162 935 c0 -16 2 -22 5 -12 2 9 2 23 0 30 -3 6 -5 -1 -5 -18z"/>
<path d="M3790 875 c13 -14 26 -25 28 -25 3 0 -5 11 -18 25 -13 14 -26 25 -28
25 -3 0 5 -11 18 -25z"/>
<path d="M3830 846 c0 -2 8 -10 18 -17 15 -13 16 -12 3 4 -13 16 -21 21 -21
13z"/>
<path d="M3743 725 c0 -27 2 -38 4 -22 2 15 2 37 0 50 -2 12 -4 0 -4 -28z"/>
<path d="M3743 570 c0 -36 2 -50 4 -32 2 17 2 47 0 65 -2 17 -4 3 -4 -33z"/>
<path d="M4152 590 c0 -14 2 -19 5 -12 2 6 2 18 0 25 -3 6 -5 1 -5 -13z"/>
<path d="M4161 464 c0 -11 3 -14 6 -6 3 7 2 16 -1 19 -3 4 -6 -2 -5 -13z"/>
</g>
</svg>
