<svg width="200" height="134" viewBox="0 0 200 134" fill="none" xmlns="http://www.w3.org/2000/svg">
<path d="M161.25 50.6666C158.451 36.481 150.813 23.7071 139.642 14.527C128.471 5.34692 114.459 0.330044 100 0.333315C75.9167 0.333315 55 14 44.5833 34C32.3353 35.3236 21.0084 41.1267 12.7791 50.2943C4.54976 59.4619 -0.00143085 71.3473 3.3744e-07 83.6666C3.3744e-07 111.25 22.4167 133.667 50 133.667H158.333C181.333 133.667 200 115 200 92C200 70 182.917 52.1666 161.25 50.6666ZM141.667 75.3333L100 117L58.3333 75.3333H83.3333V42H116.667V75.3333H141.667Z" fill="white"/>
</svg>
